999
dxflib 3.3.4.0
  0
SECTION
  2
HEADER
  9
$ACADVER
  1
AC1015
  9
$HANDSEED
  5
FFFF
  9
$DIMADEC
 70
0
  9
$DIMASZ
 40
2.5
  9
$DIMAUNIT
 70
0
  9
$DIMAZIN
 70
2
  9
$DIMDEC
 70
4
  9
$DIMEXE
 40
1.25
  9
$DIMEXO
 40
0.625
  9
$DIMGAP
 40
0.625
  9
$DIMLUNIT
 70
2
  9
$DIMSCALE
 40
1.0
  9
$DIMTSZ
 40
0.0
  9
$DIMTXT
 40
2.5
  9
$DIMZIN
 70
8
  9
$DWGCODEPAGE
  3
ANSI_1252
  9
$INSUNITS
 70
1
  9
$LTSCALE
 40
1.0
  0
ENDSEC
  0
SECTION
  2
TABLES
  0
TABLE
  2
VPORT
  5
8
100
AcDbSymbolTable
 70
1
  0
VPORT
  5
30
100
AcDbSymbolTableRecord
100
AcDbViewportTableRecord
  2
*Active
 70
0
 10
0.0
 20
0.0
 11
1.0
 21
1.0
 12
286.3055555555554861
 22
148.5
 13
0.0
 23
0.0
 14
10.0
 24
10.0
 15
10.0
 25
10.0
 16
0.0
 26
0.0
 36
1.0
 17
0.0
 27
0.0
 37
0.0
 40
297.0
 41
1.92798353909465
 42
50.0
 43
0.0
 44
0.0
 50
0.0
 51
0.0
 71
0
 72
100
 73
1
 74
3
 75
1
 76
1
 77
0
 78
0
281
0
 65
1
110
0.0
120
0.0
130
0.0
111
1.0
121
0.0
131
0.0
112
0.0
122
1.0
132
0.0
 79
0
146
0.0
  0
ENDTAB
  0
TABLE
  2
LTYPE
  5
5
100
AcDbSymbolTable
 70
21
  0
LTYPE
  5
16
100
AcDbSymbolTableRecord
100
AcDbLinetypeTableRecord
  2
CONTINUOUS
 70
0
  3
Solid line
 72
65
 73
0
 40
0.0
  0
LTYPE
  5
31
100
AcDbSymbolTableRecord
100
AcDbLinetypeTableRecord
  2
CENTER2
 70
0
  3
Center (.5x) ___ _ ___ _ ___ _ ___ _ ___ _ ___
 72
65
 73
4
 40
28.5749999999999993
 49
19.0500000000000007
 74
0
 49
-3.1749999999999998
 74
0
 49
3.1749999999999998
 74
0
 49
-3.1749999999999998
 74
0
  0
LTYPE
  5
32
100
AcDbSymbolTableRecord
100
AcDbLinetypeTableRecord
  2
DIVIDEX2
 70
0
  3
Divide (2x) ________  .  .  ________  .  .  _
 72
65
 73
6
 40
63.5
 49
25.3999999999999986
 74
0
 49
-12.6999999999999993
 74
0
 49
0.0
 74
0
 49
-12.6999999999999993
 74
0
 49
0.0
 74
0
 49
-12.6999999999999993
 74
0
  0
LTYPE
  5
33
100
AcDbSymbolTableRecord
100
AcDbLinetypeTableRecord
  2
DOT2
 70
0
  3
Dot (.5x) .....................................
 72
65
 73
2
 40
3.1749999999999998
 49
0.0
 74
0
 49
-3.1749999999999998
 74
0
  0
LTYPE
  5
34
100
AcDbSymbolTableRecord
100
AcDbLinetypeTableRecord
  2
DASHDOT2
 70
0
  3
Dash dot (.5x) _._._._._._._._._._._._._._._.
 72
65
 73
4
 40
12.6999999999999993
 49
6.3499999999999996
 74
0
 49
-3.1749999999999998
 74
0
 49
0.0
 74
0
 49
-3.1749999999999998
 74
0
  0
LTYPE
  5
35
100
AcDbSymbolTableRecord
100
AcDbLinetypeTableRecord
  2
DIVIDE
 70
0
  3
Divide ____ . . ____ . . ____ . . ____ . . ____
 72
65
 73
6
 40
31.75
 49
12.6999999999999993
 74
0
 49
-6.3499999999999996
 74
0
 49
0.0
 74
0
 49
-6.3499999999999996
 74
0
 49
0.0
 74
0
 49
-6.3499999999999996
 74
0
  0
LTYPE
  5
36
100
AcDbSymbolTableRecord
100
AcDbLinetypeTableRecord
  2
DASHDOT
 70
0
  3
Dash dot __ . __ . __ . __ . __ . __ . __ . __
 72
65
 73
4
 40
25.3999999999999986
 49
12.6999999999999993
 74
0
 49
-6.3499999999999996
 74
0
 49
0.0
 74
0
 49
-6.3499999999999996
 74
0
  0
LTYPE
  5
37
100
AcDbSymbolTableRecord
100
AcDbLinetypeTableRecord
  2
BORDER
 70
0
  3
Border __ __ . __ __ . __ __ . __ __ . __ __ .
 72
65
 73
6
 40
44.4500000000000028
 49
12.6999999999999993
 74
0
 49
-6.3499999999999996
 74
0
 49
12.6999999999999993
 74
0
 49
-6.3499999999999996
 74
0
 49
0.0
 74
0
 49
-6.3499999999999996
 74
0
  0
LTYPE
  5
38
100
AcDbSymbolTableRecord
100
AcDbLinetypeTableRecord
  2
DASHDOTX2
 70
0
  3
Dash dot (2x) ____  .  ____  .  ____  .  ___
 72
65
 73
4
 40
50.7999999999999972
 49
25.3999999999999986
 74
0
 49
-12.6999999999999993
 74
0
 49
0.0
 74
0
 49
-12.6999999999999993
 74
0
  0
LTYPE
  5
39
100
AcDbSymbolTableRecord
100
AcDbLinetypeTableRecord
  2
CENTERX2
 70
0
  3
Center (2x) ________  __  ________  __  _____
 72
65
 73
4
 40
101.5999999999999943
 49
63.5
 74
0
 49
-12.6999999999999993
 74
0
 49
12.6999999999999993
 74
0
 49
-12.6999999999999993
 74
0
  0
LTYPE
  5
3A
100
AcDbSymbolTableRecord
100
AcDbLinetypeTableRecord
  2
BORDER2
 70
0
  3
Border (.5x) __.__.__.__.__.__.__.__.__.__.__.
 72
65
 73
6
 40
22.2250000000000014
 49
6.3499999999999996
 74
0
 49
-3.1749999999999998
 74
0
 49
6.3499999999999996
 74
0
 49
-3.1749999999999998
 74
0
 49
0.0
 74
0
 49
-3.1749999999999998
 74
0
  0
LTYPE
  5
3B
100
AcDbSymbolTableRecord
100
AcDbLinetypeTableRecord
  2
BORDERX2
 70
0
  3
Border (2x) ____  ____  .  ____  ____  .  ___
 72
65
 73
6
 40
88.9000000000000057
 49
25.3999999999999986
 74
0
 49
-12.6999999999999993
 74
0
 49
25.3999999999999986
 74
0
 49
-12.6999999999999993
 74
0
 49
0.0
 74
0
 49
-12.6999999999999993
 74
0
  0
LTYPE
  5
14
100
AcDbSymbolTableRecord
100
AcDbLinetypeTableRecord
  2
BYBLOCK
 70
0
  3

 72
65
 73
0
 40
0.0
  0
LTYPE
  5
15
100
AcDbSymbolTableRecord
100
AcDbLinetypeTableRecord
  2
BYLAYER
 70
0
  3

 72
65
 73
0
 40
0.0
  0
LTYPE
  5
3C
100
AcDbSymbolTableRecord
100
AcDbLinetypeTableRecord
  2
DASHED2
 70
0
  3
Dashed (.5x) _ _ _ _ _ _ _ _ _ _ _ _ _ _ _ _ _
 72
65
 73
2
 40
9.5250000000000004
 49
6.3499999999999996
 74
0
 49
-3.1749999999999998
 74
0
  0
LTYPE
  5
3D
100
AcDbSymbolTableRecord
100
AcDbLinetypeTableRecord
  2
CENTER
 70
0
  3
Center ____ _ ____ _ ____ _ ____ _ ____ _ ____
 72
65
 73
4
 40
50.7999999999999972
 49
31.75
 74
0
 49
-6.3499999999999996
 74
0
 49
6.3499999999999996
 74
0
 49
-6.3499999999999996
 74
0
  0
LTYPE
  5
3E
100
AcDbSymbolTableRecord
100
AcDbLinetypeTableRecord
  2
DIVIDE2
 70
0
  3
Divide (.5x) __..__..__..__..__..__..__..__.._
 72
65
 73
6
 40
15.875
 49
6.3499999999999996
 74
0
 49
-3.1749999999999998
 74
0
 49
0.0
 74
0
 49
-3.1749999999999998
 74
0
 49
0.0
 74
0
 49
-3.1749999999999998
 74
0
  0
LTYPE
  5
3F
100
AcDbSymbolTableRecord
100
AcDbLinetypeTableRecord
  2
DASHED
 70
0
  3
Dashed __ __ __ __ __ __ __ __ __ __ __ __ __ _
 72
65
 73
2
 40
19.0500000000000007
 49
12.6999999999999993
 74
0
 49
-6.3499999999999996
 74
0
  0
LTYPE
  5
40
100
AcDbSymbolTableRecord
100
AcDbLinetypeTableRecord
  2
DOTX2
 70
0
  3
Dot (2x) .  .  .  .  .  .  .  .  .  .  .  .  .
 72
65
 73
2
 40
12.6999999999999993
 49
0.0
 74
0
 49
-12.6999999999999993
 74
0
  0
LTYPE
  5
41
100
AcDbSymbolTableRecord
100
AcDbLinetypeTableRecord
  2
DASHEDX2
 70
0
  3
Dashed (2x) ____  ____  ____  ____  ____  ___
 72
65
 73
2
 40
38.1000000000000014
 49
25.3999999999999986
 74
0
 49
-12.6999999999999993
 74
0
  0
LTYPE
  5
42
100
AcDbSymbolTableRecord
100
AcDbLinetypeTableRecord
  2
DOT
 70
0
  3
Dot . . . . . . . . . . . . . . . . . . . . . .
 72
65
 73
2
 40
6.3499999999999996
 49
0.0
 74
0
 49
-6.3499999999999996
 74
0
  0
ENDTAB
  0
TABLE
  2
LAYER
  5
2
100
AcDbSymbolTable
 70
2
  0
LAYER
  5
43
100
AcDbSymbolTableRecord
100
AcDbLayerTableRecord
  2
Dimensions
 70
1
 62
-3
420
65280
  6
CONTINUOUS
370
0
390
F
  0
LAYER
  5
10
100
AcDbSymbolTableRecord
100
AcDbLayerTableRecord
  2
0
 70
0
 62
7
420
16777215
  6
CONTINUOUS
370
25
390
F
  0
ENDTAB
  0
TABLE
  2
STYLE
  5
3
100
AcDbSymbolTable
 70
77
  0
STYLE
  5
44
100
AcDbSymbolTableRecord
100
AcDbTextStyleTableRecord
  2
Standard
 70
0
 40
0.0
 41
1.0
 50
0.0
 71
0
 42
2.5
  3

  4

1001
ACAD
1000
txt
1071
0
  0
STYLE
  5
45
100
AcDbSymbolTableRecord
100
AcDbTextStyleTableRecord
  2
textstyle0
 70
0
 40
0.0
 41
1.0
 50
0.0
 71
0
 42
0.15
  3

  4

1001
ACAD
1000
Droid Sans [unknown]
1071
0
  0
STYLE
  5
46
100
AcDbSymbolTableRecord
100
AcDbTextStyleTableRecord
  2
textstyle1
 70
0
 40
0.0
 41
1.0
 50
0.0
 71
0
 42
0.1
  3

  4

1001
ACAD
1000
Droid Sans [unknown]
1071
0
  0
STYLE
  5
47
100
AcDbSymbolTableRecord
100
AcDbTextStyleTableRecord
  2
textstyle2
 70
0
 40
0.0
 41
1.0
 50
0.0
 71
0
 42
0.1
  3

  4

1001
ACAD
1000
Droid Sans [unknown]
1071
0
  0
STYLE
  5
48
100
AcDbSymbolTableRecord
100
AcDbTextStyleTableRecord
  2
textstyle3
 70
0
 40
0.0
 41
1.0
 50
0.0
 71
0
 42
0.1
  3

  4

1001
ACAD
1000
Droid Sans Mono
1071
0
  0
STYLE
  5
49
100
AcDbSymbolTableRecord
100
AcDbTextStyleTableRecord
  2
textstyle4
 70
0
 40
0.0
 41
1.0
 50
0.0
 71
0
 42
0.1
  3

  4

1001
ACAD
1000
Droid Sans [unknown]
1071
0
  0
STYLE
  5
4A
100
AcDbSymbolTableRecord
100
AcDbTextStyleTableRecord
  2
textstyle5
 70
0
 40
0.0
 41
1.0
 50
0.0
 71
0
 42
0.1
  3

  4

1001
ACAD
1000
Droid Sans [unknown]
1071
0
  0
STYLE
  5
4B
100
AcDbSymbolTableRecord
100
AcDbTextStyleTableRecord
  2
textstyle6
 70
0
 40
0.0
 41
1.0
 50
0.0
 71
0
 42
0.1
  3

  4

1001
ACAD
1000
Droid Sans Mono
1071
0
  0
STYLE
  5
4C
100
AcDbSymbolTableRecord
100
AcDbTextStyleTableRecord
  2
textstyle7
 70
0
 40
0.0
 41
1.0
 50
0.0
 71
0
 42
0.1
  3

  4

1001
ACAD
1000
Droid Sans [unknown]
1071
0
  0
STYLE
  5
4D
100
AcDbSymbolTableRecord
100
AcDbTextStyleTableRecord
  2
textstyle8
 70
0
 40
0.0
 41
1.0
 50
0.0
 71
0
 42
0.1
  3

  4

1001
ACAD
1000
Droid Sans [unknown]
1071
0
  0
STYLE
  5
4E
100
AcDbSymbolTableRecord
100
AcDbTextStyleTableRecord
  2
textstyle9
 70
0
 40
0.0
 41
1.0
 50
0.0
 71
0
 42
0.1
  3

  4

1001
ACAD
1000
Droid Sans Mono
1071
0
  0
STYLE
  5
4F
100
AcDbSymbolTableRecord
100
AcDbTextStyleTableRecord
  2
textstyle10
 70
0
 40
0.0
 41
1.0
 50
0.0
 71
0
 42
0.1
  3

  4

1001
ACAD
1000
Droid Sans [unknown]
1071
0
  0
STYLE
  5
50
100
AcDbSymbolTableRecord
100
AcDbTextStyleTableRecord
  2
textstyle11
 70
0
 40
0.0
 41
1.0
 50
0.0
 71
0
 42
0.1
  3

  4

1001
ACAD
1000
Droid Sans [unknown]
1071
0
  0
STYLE
  5
51
100
AcDbSymbolTableRecord
100
AcDbTextStyleTableRecord
  2
textstyle12
 70
0
 40
0.0
 41
1.0
 50
0.0
 71
0
 42
0.1
  3

  4

1001
ACAD
1000
Droid Sans Mono
1071
0
  0
STYLE
  5
52
100
AcDbSymbolTableRecord
100
AcDbTextStyleTableRecord
  2
textstyle13
 70
0
 40
0.0
 41
1.0
 50
0.0
 71
0
 42
0.1
  3

  4

1001
ACAD
1000
Droid Sans [unknown]
1071
0
  0
STYLE
  5
53
100
AcDbSymbolTableRecord
100
AcDbTextStyleTableRecord
  2
textstyle14
 70
0
 40
0.0
 41
1.0
 50
0.0
 71
0
 42
0.1
  3

  4

1001
ACAD
1000
Droid Sans [unknown]
1071
0
  0
STYLE
  5
54
100
AcDbSymbolTableRecord
100
AcDbTextStyleTableRecord
  2
textstyle15
 70
0
 40
0.0
 41
1.0
 50
0.0
 71
0
 42
0.1
  3

  4

1001
ACAD
1000
Droid Sans Mono
1071
0
  0
STYLE
  5
55
100
AcDbSymbolTableRecord
100
AcDbTextStyleTableRecord
  2
textstyle16
 70
0
 40
0.0
 41
1.0
 50
0.0
 71
0
 42
0.1
  3

  4

1001
ACAD
1000
Droid Sans [unknown]
1071
0
  0
STYLE
  5
56
100
AcDbSymbolTableRecord
100
AcDbTextStyleTableRecord
  2
textstyle17
 70
0
 40
0.0
 41
1.0
 50
0.0
 71
0
 42
0.1
  3

  4

1001
ACAD
1000
Droid Sans [unknown]
1071
0
  0
STYLE
  5
57
100
AcDbSymbolTableRecord
100
AcDbTextStyleTableRecord
  2
textstyle18
 70
0
 40
0.0
 41
1.0
 50
0.0
 71
0
 42
0.1
  3

  4

1001
ACAD
1000
Droid Sans Mono
1071
0
  0
STYLE
  5
58
100
AcDbSymbolTableRecord
100
AcDbTextStyleTableRecord
  2
textstyle19
 70
0
 40
0.0
 41
1.0
 50
0.0
 71
0
 42
0.1
  3

  4

1001
ACAD
1000
Droid Sans [unknown]
1071
0
  0
STYLE
  5
59
100
AcDbSymbolTableRecord
100
AcDbTextStyleTableRecord
  2
textstyle20
 70
0
 40
0.0
 41
1.0
 50
0.0
 71
0
 42
0.15
  3

  4

1001
ACAD
1000
Droid Sans [unknown]
1071
0
  0
STYLE
  5
5A
100
AcDbSymbolTableRecord
100
AcDbTextStyleTableRecord
  2
textstyle21
 70
0
 40
0.0
 41
1.0
 50
0.0
 71
0
 42
0.1
  3

  4

1001
ACAD
1000
Droid Sans [unknown]
1071
0
  0
STYLE
  5
5B
100
AcDbSymbolTableRecord
100
AcDbTextStyleTableRecord
  2
textstyle22
 70
0
 40
0.0
 41
1.0
 50
0.0
 71
0
 42
0.1
  3

  4

1001
ACAD
1000
Droid Sans [unknown]
1071
0
  0
STYLE
  5
5C
100
AcDbSymbolTableRecord
100
AcDbTextStyleTableRecord
  2
textstyle23
 70
0
 40
0.0
 41
1.0
 50
0.0
 71
0
 42
0.1
  3

  4

1001
ACAD
1000
Droid Sans Mono
1071
0
  0
STYLE
  5
5D
100
AcDbSymbolTableRecord
100
AcDbTextStyleTableRecord
  2
textstyle24
 70
0
 40
0.0
 41
1.0
 50
0.0
 71
0
 42
0.1
  3

  4

1001
ACAD
1000
Droid Sans [unknown]
1071
0
  0
STYLE
  5
5E
100
AcDbSymbolTableRecord
100
AcDbTextStyleTableRecord
  2
textstyle25
 70
0
 40
0.0
 41
1.0
 50
0.0
 71
0
 42
0.1
  3

  4

1001
ACAD
1000
Droid Sans Mono
1071
0
  0
STYLE
  5
5F
100
AcDbSymbolTableRecord
100
AcDbTextStyleTableRecord
  2
textstyle26
 70
0
 40
0.0
 41
1.0
 50
0.0
 71
0
 42
0.1
  3

  4

1001
ACAD
1000
Droid Sans [unknown]
1071
0
  0
STYLE
  5
60
100
AcDbSymbolTableRecord
100
AcDbTextStyleTableRecord
  2
textstyle27
 70
0
 40
0.0
 41
1.0
 50
0.0
 71
0
 42
0.1
  3

  4

1001
ACAD
1000
Droid Sans Mono
1071
0
  0
STYLE
  5
61
100
AcDbSymbolTableRecord
100
AcDbTextStyleTableRecord
  2
textstyle28
 70
0
 40
0.0
 41
1.0
 50
0.0
 71
0
 42
0.1
  3

  4

1001
ACAD
1000
Droid Sans [unknown]
1071
0
  0
STYLE
  5
62
100
AcDbSymbolTableRecord
100
AcDbTextStyleTableRecord
  2
textstyle29
 70
0
 40
0.0
 41
1.0
 50
0.0
 71
0
 42
0.1
  3

  4

1001
ACAD
1000
Droid Sans Mono
1071
0
  0
STYLE
  5
63
100
AcDbSymbolTableRecord
100
AcDbTextStyleTableRecord
  2
textstyle30
 70
0
 40
0.0
 41
1.0
 50
0.0
 71
0
 42
0.1
  3

  4

1001
ACAD
1000
Droid Sans [unknown]
1071
0
  0
STYLE
  5
64
100
AcDbSymbolTableRecord
100
AcDbTextStyleTableRecord
  2
textstyle31
 70
0
 40
0.0
 41
1.0
 50
0.0
 71
0
 42
0.1
  3

  4

1001
ACAD
1000
Droid Sans Mono
1071
0
  0
STYLE
  5
65
100
AcDbSymbolTableRecord
100
AcDbTextStyleTableRecord
  2
textstyle32
 70
0
 40
0.0
 41
1.0
 50
0.0
 71
0
 42
0.1
  3

  4

1001
ACAD
1000
Droid Sans [unknown]
1071
0
  0
STYLE
  5
66
100
AcDbSymbolTableRecord
100
AcDbTextStyleTableRecord
  2
textstyle33
 70
0
 40
0.0
 41
1.0
 50
0.0
 71
0
 42
0.1
  3

  4

1001
ACAD
1000
Droid Sans Mono
1071
0
  0
STYLE
  5
67
100
AcDbSymbolTableRecord
100
AcDbTextStyleTableRecord
  2
textstyle34
 70
0
 40
0.0
 41
1.0
 50
0.0
 71
0
 42
0.1
  3

  4

1001
ACAD
1000
Droid Sans [unknown]
1071
0
  0
STYLE
  5
68
100
AcDbSymbolTableRecord
100
AcDbTextStyleTableRecord
  2
textstyle35
 70
0
 40
0.0
 41
1.0
 50
0.0
 71
0
 42
0.1
  3

  4

1001
ACAD
1000
Droid Sans Mono
1071
0
  0
STYLE
  5
69
100
AcDbSymbolTableRecord
100
AcDbTextStyleTableRecord
  2
textstyle36
 70
0
 40
0.0
 41
1.0
 50
0.0
 71
0
 42
0.1
  3

  4

1001
ACAD
1000
Droid Sans [unknown]
1071
0
  0
STYLE
  5
6A
100
AcDbSymbolTableRecord
100
AcDbTextStyleTableRecord
  2
textstyle37
 70
0
 40
0.0
 41
1.0
 50
0.0
 71
0
 42
0.1
  3

  4

1001
ACAD
1000
Droid Sans Mono
1071
0
  0
STYLE
  5
6B
100
AcDbSymbolTableRecord
100
AcDbTextStyleTableRecord
  2
textstyle38
 70
0
 40
0.0
 41
1.0
 50
0.0
 71
0
 42
0.1
  3

  4

1001
ACAD
1000
Droid Sans [unknown]
1071
0
  0
STYLE
  5
6C
100
AcDbSymbolTableRecord
100
AcDbTextStyleTableRecord
  2
textstyle39
 70
0
 40
0.0
 41
1.0
 50
0.0
 71
0
 42
0.1
  3

  4

1001
ACAD
1000
Droid Sans Mono
1071
0
  0
STYLE
  5
6D
100
AcDbSymbolTableRecord
100
AcDbTextStyleTableRecord
  2
textstyle40
 70
0
 40
0.0
 41
1.0
 50
0.0
 71
0
 42
0.1
  3

  4

1001
ACAD
1000
Droid Sans [unknown]
1071
0
  0
STYLE
  5
6E
100
AcDbSymbolTableRecord
100
AcDbTextStyleTableRecord
  2
textstyle41
 70
0
 40
0.0
 41
1.0
 50
0.0
 71
0
 42
0.1
  3

  4

1001
ACAD
1000
Droid Sans Mono
1071
0
  0
STYLE
  5
6F
100
AcDbSymbolTableRecord
100
AcDbTextStyleTableRecord
  2
textstyle42
 70
0
 40
0.0
 41
1.0
 50
0.0
 71
0
 42
0.1
  3

  4

1001
ACAD
1000
Droid Sans [unknown]
1071
0
  0
STYLE
  5
70
100
AcDbSymbolTableRecord
100
AcDbTextStyleTableRecord
  2
textstyle43
 70
0
 40
0.0
 41
1.0
 50
0.0
 71
0
 42
0.1
  3

  4

1001
ACAD
1000
Droid Sans Mono
1071
0
  0
STYLE
  5
71
100
AcDbSymbolTableRecord
100
AcDbTextStyleTableRecord
  2
textstyle44
 70
0
 40
0.0
 41
1.0
 50
0.0
 71
0
 42
0.1
  3

  4

1001
ACAD
1000
Droid Sans [unknown]
1071
0
  0
STYLE
  5
72
100
AcDbSymbolTableRecord
100
AcDbTextStyleTableRecord
  2
textstyle45
 70
0
 40
0.0
 41
1.0
 50
0.0
 71
0
 42
0.1
  3

  4

1001
ACAD
1000
Droid Sans Mono
1071
0
  0
STYLE
  5
73
100
AcDbSymbolTableRecord
100
AcDbTextStyleTableRecord
  2
textstyle46
 70
0
 40
0.0
 41
1.0
 50
0.0
 71
0
 42
0.1
  3

  4

1001
ACAD
1000
Droid Sans [unknown]
1071
0
  0
STYLE
  5
74
100
AcDbSymbolTableRecord
100
AcDbTextStyleTableRecord
  2
textstyle47
 70
0
 40
0.0
 41
1.0
 50
0.0
 71
0
 42
0.1
  3

  4

1001
ACAD
1000
Droid Sans Mono
1071
0
  0
STYLE
  5
75
100
AcDbSymbolTableRecord
100
AcDbTextStyleTableRecord
  2
textstyle48
 70
0
 40
0.0
 41
1.0
 50
0.0
 71
0
 42
0.1
  3

  4

1001
ACAD
1000
Droid Sans [unknown]
1071
0
  0
STYLE
  5
76
100
AcDbSymbolTableRecord
100
AcDbTextStyleTableRecord
  2
textstyle49
 70
0
 40
0.0
 41
1.0
 50
0.0
 71
0
 42
0.1
  3

  4

1001
ACAD
1000
Droid Sans Mono
1071
0
  0
STYLE
  5
77
100
AcDbSymbolTableRecord
100
AcDbTextStyleTableRecord
  2
textstyle50
 70
0
 40
0.0
 41
1.0
 50
0.0
 71
0
 42
0.1
  3

  4

1001
ACAD
1000
Droid Sans [unknown]
1071
0
  0
STYLE
  5
78
100
AcDbSymbolTableRecord
100
AcDbTextStyleTableRecord
  2
textstyle51
 70
0
 40
0.0
 41
1.0
 50
0.0
 71
0
 42
0.1
  3

  4

1001
ACAD
1000
Droid Sans Mono
1071
0
  0
STYLE
  5
79
100
AcDbSymbolTableRecord
100
AcDbTextStyleTableRecord
  2
textstyle52
 70
0
 40
0.0
 41
1.0
 50
0.0
 71
0
 42
0.1
  3

  4

1001
ACAD
1000
Droid Sans [unknown]
1071
0
  0
STYLE
  5
7A
100
AcDbSymbolTableRecord
100
AcDbTextStyleTableRecord
  2
textstyle53
 70
0
 40
0.0
 41
1.0
 50
0.0
 71
0
 42
0.1
  3

  4

1001
ACAD
1000
Droid Sans Mono
1071
0
  0
STYLE
  5
7B
100
AcDbSymbolTableRecord
100
AcDbTextStyleTableRecord
  2
textstyle54
 70
0
 40
0.0
 41
1.0
 50
0.0
 71
0
 42
0.1
  3

  4

1001
ACAD
1000
Droid Sans [unknown]
1071
0
  0
STYLE
  5
7C
100
AcDbSymbolTableRecord
100
AcDbTextStyleTableRecord
  2
textstyle55
 70
0
 40
0.0
 41
1.0
 50
0.0
 71
0
 42
0.1
  3

  4

1001
ACAD
1000
Droid Sans Mono
1071
0
  0
STYLE
  5
7D
100
AcDbSymbolTableRecord
100
AcDbTextStyleTableRecord
  2
textstyle56
 70
0
 40
0.0
 41
1.0
 50
0.0
 71
0
 42
0.1
  3

  4

1001
ACAD
1000
Droid Sans [unknown]
1071
0
  0
STYLE
  5
7E
100
AcDbSymbolTableRecord
100
AcDbTextStyleTableRecord
  2
textstyle57
 70
0
 40
0.0
 41
1.0
 50
0.0
 71
0
 42
0.1
  3

  4

1001
ACAD
1000
Droid Sans Mono
1071
0
  0
STYLE
  5
7F
100
AcDbSymbolTableRecord
100
AcDbTextStyleTableRecord
  2
textstyle58
 70
0
 40
0.0
 41
1.0
 50
0.0
 71
0
 42
0.1
  3

  4

1001
ACAD
1000
Droid Sans [unknown]
1071
0
  0
STYLE
  5
80
100
AcDbSymbolTableRecord
100
AcDbTextStyleTableRecord
  2
textstyle59
 70
0
 40
0.0
 41
1.0
 50
0.0
 71
0
 42
0.1
  3

  4

1001
ACAD
1000
Droid Sans Mono
1071
0
  0
STYLE
  5
81
100
AcDbSymbolTableRecord
100
AcDbTextStyleTableRecord
  2
textstyle60
 70
0
 40
0.0
 41
1.0
 50
0.0
 71
0
 42
0.1
  3

  4

1001
ACAD
1000
Droid Sans [unknown]
1071
0
  0
STYLE
  5
82
100
AcDbSymbolTableRecord
100
AcDbTextStyleTableRecord
  2
textstyle61
 70
0
 40
0.0
 41
1.0
 50
0.0
 71
0
 42
0.1
  3

  4

1001
ACAD
1000
Droid Sans Mono
1071
0
  0
STYLE
  5
83
100
AcDbSymbolTableRecord
100
AcDbTextStyleTableRecord
  2
textstyle62
 70
0
 40
0.0
 41
1.0
 50
0.0
 71
0
 42
0.1
  3

  4

1001
ACAD
1000
Droid Sans [unknown]
1071
0
  0
STYLE
  5
84
100
AcDbSymbolTableRecord
100
AcDbTextStyleTableRecord
  2
textstyle63
 70
0
 40
0.0
 41
1.0
 50
0.0
 71
0
 42
0.1
  3

  4

1001
ACAD
1000
Droid Sans Mono
1071
0
  0
STYLE
  5
85
100
AcDbSymbolTableRecord
100
AcDbTextStyleTableRecord
  2
textstyle64
 70
0
 40
0.0
 41
1.0
 50
0.0
 71
0
 42
0.1
  3

  4

1001
ACAD
1000
Droid Sans [unknown]
1071
0
  0
STYLE
  5
86
100
AcDbSymbolTableRecord
100
AcDbTextStyleTableRecord
  2
textstyle65
 70
0
 40
0.0
 41
1.0
 50
0.0
 71
0
 42
0.1
  3

  4

1001
ACAD
1000
Droid Sans Mono
1071
0
  0
STYLE
  5
87
100
AcDbSymbolTableRecord
100
AcDbTextStyleTableRecord
  2
textstyle66
 70
0
 40
0.0
 41
1.0
 50
0.0
 71
0
 42
0.1
  3

  4

1001
ACAD
1000
Droid Sans [unknown]
1071
0
  0
STYLE
  5
88
100
AcDbSymbolTableRecord
100
AcDbTextStyleTableRecord
  2
textstyle67
 70
0
 40
0.0
 41
1.0
 50
0.0
 71
0
 42
0.1
  3

  4

1001
ACAD
1000
Droid Sans Mono
1071
0
  0
STYLE
  5
89
100
AcDbSymbolTableRecord
100
AcDbTextStyleTableRecord
  2
textstyle68
 70
0
 40
0.0
 41
1.0
 50
0.0
 71
0
 42
0.1
  3

  4

1001
ACAD
1000
Droid Sans [unknown]
1071
0
  0
STYLE
  5
8A
100
AcDbSymbolTableRecord
100
AcDbTextStyleTableRecord
  2
textstyle69
 70
0
 40
0.0
 41
1.0
 50
0.0
 71
0
 42
0.1
  3

  4

1001
ACAD
1000
Droid Sans Mono
1071
0
  0
STYLE
  5
8B
100
AcDbSymbolTableRecord
100
AcDbTextStyleTableRecord
  2
textstyle70
 70
0
 40
0.0
 41
1.0
 50
0.0
 71
0
 42
0.1
  3

  4

1001
ACAD
1000
Droid Sans [unknown]
1071
0
  0
STYLE
  5
8C
100
AcDbSymbolTableRecord
100
AcDbTextStyleTableRecord
  2
textstyle71
 70
0
 40
0.0
 41
1.0
 50
0.0
 71
0
 42
0.1
  3

  4

1001
ACAD
1000
Droid Sans Mono
1071
0
  0
STYLE
  5
8D
100
AcDbSymbolTableRecord
100
AcDbTextStyleTableRecord
  2
textstyle72
 70
0
 40
0.0
 41
1.0
 50
0.0
 71
0
 42
0.1
  3

  4

1001
ACAD
1000
Droid Sans [unknown]
1071
0
  0
STYLE
  5
8E
100
AcDbSymbolTableRecord
100
AcDbTextStyleTableRecord
  2
textstyle73
 70
0
 40
0.0
 41
1.0
 50
0.0
 71
0
 42
0.1
  3

  4

1001
ACAD
1000
Droid Sans Mono
1071
0
  0
STYLE
  5
8F
100
AcDbSymbolTableRecord
100
AcDbTextStyleTableRecord
  2
textstyle74
 70
0
 40
0.0
 41
1.0
 50
0.0
 71
0
 42
0.1
  3

  4

1001
ACAD
1000
Droid Sans Mono
1071
0
  0
STYLE
  5
90
100
AcDbSymbolTableRecord
100
AcDbTextStyleTableRecord
  2
textstyle75
 70
0
 40
0.0
 41
1.0
 50
0.0
 71
0
 42
0.1
  3

  4

1001
ACAD
1000
Droid Sans [unknown]
1071
0
  0
ENDTAB
  0
TABLE
  2
VIEW
  5
6
100
AcDbSymbolTable
 70
0
  0
ENDTAB
  0
TABLE
  2
UCS
  5
7
100
AcDbSymbolTable
 70
0
  0
ENDTAB
  0
TABLE
  2
APPID
  5
9
100
AcDbSymbolTable
 70
1
  0
APPID
  5
12
100
AcDbSymbolTableRecord
100
AcDbRegAppTableRecord
  2
ACAD
 70
0
  0
APPID
  5
91
100
AcDbSymbolTableRecord
100
AcDbRegAppTableRecord
  2
QCAD
 70
0
  0
ENDTAB
  0
TABLE
  2
DIMSTYLE
  5
A
100
AcDbSymbolTable
 70
1
100
AcDbDimStyleTable
 71
0
  0
DIMSTYLE
105
27
100
AcDbSymbolTableRecord
100
AcDbDimStyleTableRecord
  2
Standard
 41
2.5
 42
0.625
 43
3.75
 44
1.25
 70
0
 73
0
 74
0
 77
1
 78
8
140
2.5
141
2.5
143
0.03937007874016
147
0.625
171
3
172
1
271
2
272
2
274
3
278
44
283
0
284
8
340
44
  0
ENDTAB
  0
TABLE
  2
BLOCK_RECORD
  5
1
100
AcDbSymbolTable
 70
1
  0
BLOCK_RECORD
  5
1F
100
AcDbSymbolTableRecord
100
AcDbBlockTableRecord
  2
*Model_Space
340
22
  0
BLOCK_RECORD
  5
1B
100
AcDbSymbolTableRecord
100
AcDbBlockTableRecord
  2
*Paper_Space
340
1E
  0
BLOCK_RECORD
  5
23
100
AcDbSymbolTableRecord
100
AcDbBlockTableRecord
  2
*Paper_Space0
340
26
  0
BLOCK_RECORD
  5
92
100
AcDbSymbolTableRecord
100
AcDbBlockTableRecord
  2
card4
340
0
  0
BLOCK_RECORD
  5
93
100
AcDbSymbolTableRecord
100
AcDbBlockTableRecord
  2
card
340
0
  0
BLOCK_RECORD
  5
94
100
AcDbSymbolTableRecord
100
AcDbBlockTableRecord
  2
row
340
0
  0
ENDTAB
  0
ENDSEC
  0
SECTION
  2
BLOCKS
  0
BLOCK
  5
20
100
AcDbEntity
  8
0
100
AcDbBlockBegin
  2
*Model_Space
 70
0
 10
0.0
 20
0.0
 30
0.0
  3
*Model_Space
  1

  0
ENDBLK
  5
21
100
AcDbEntity
  8
0
100
AcDbBlockEnd
  0
BLOCK
  5
1C
100
AcDbEntity
 67
1
  8
0
100
AcDbBlockBegin
  2
*Paper_Space
 70
0
 10
0.0
 20
0.0
 30
0.0
  3
*Paper_Space
  1

  0
ENDBLK
  5
1D
100
AcDbEntity
 67
1
  8
0
100
AcDbBlockEnd
  0
BLOCK
  5
24
100
AcDbEntity
  8
0
100
AcDbBlockBegin
  2
*Paper_Space0
 70
0
 10
0.0
 20
0.0
 30
0.0
  3
*Paper_Space0
  1

  0
ENDBLK
  5
25
100
AcDbEntity
  8
0
100
AcDbBlockEnd
  0
BLOCK
  5
95
100
AcDbEntity
  8
0
100
AcDbBlockBegin
  2
card4
 70
0
 10
0.0
 20
0.0
 30
0.0
  3
card4
  1

  0
LINE
  5
96
100
AcDbEntity
100
AcDbLine
  8
Dimensions
 62
256
370
-1
  6
BYLAYER
 10
0.0
 20
0.0
 30
0.0
 11
3.5
 21
0.0
 31
0.0
  0
LINE
  5
97
100
AcDbEntity
100
AcDbLine
  8
Dimensions
 62
256
370
-1
  6
BYLAYER
 10
3.5
 20
0.0
 30
0.0
 11
3.5
 21
2.0
 31
0.0
  0
LINE
  5
98
100
AcDbEntity
100
AcDbLine
  8
Dimensions
 62
256
370
-1
  6
BYLAYER
 10
3.5
 20
2.0
 30
0.0
 11
0.0
 21
2.0
 31
0.0
  0
LINE
  5
99
100
AcDbEntity
100
AcDbLine
  8
Dimensions
 62
256
370
-1
  6
BYLAYER
 10
0.0
 20
2.0
 30
0.0
 11
0.0
 21
0.0
 31
0.0
  0
TEXT
  5
9A
100
AcDbEntity
100
AcDbText
  8
0
 62
256
370
-1
  6
BYLAYER
 10
0.0
 20
0.0
 30
0.0
 40
0.15
  1
Unicode to Binary
 50
270.0
 41
1.0
  7
textstyle0
 71
0
 72
1
 11
3.2999999999999998
 21
1.0
 31
0.0
100
AcDbText
 73
2
  0
TEXT
  5
9B
100
AcDbEntity
100
AcDbText
  8
0
 62
256
370
-1
  6
BYLAYER
 10
2.0596475806932677
 20
0.7135724768742664
 30
0.0
 40
0.1
  1
More Characters
 50
270.0
 41
1.0
  7
textstyle1
 71
0
 72
1
 11
3.1000000000000001
 21
1.0
 31
0.0
100
AcDbText
 73
2
  0
TEXT
  5
9C
100
AcDbEntity
100
AcDbText
  8
0
 62
256
370
-1
  6
BYLAYER
 10
0.0138611298877663
 20
0.1430617944444587
 30
0.0
 40
0.1
  1
\U+25a0\U+25a1\U+25a0\U+25a0 \U+25a0\U+25a1\U+25a0\U+25a0
 50
0.0
 41
1.0
  7
textstyle2
 71
0
 72
0
 11
0.3763930248278129
 21
0.2249654488890452
 31
0.0
100
AcDbText
 73
2
  0
TEXT
  5
9D
100
AcDbEntity
100
AcDbText
  8
0
 62
256
370
-1
  6
BYLAYER
 10
0.1626813977139168
 20
0.2839714290000001
 30
0.0
 40
0.1
  1
\U+267b
 50
0.0
 41
1.0
  7
textstyle3
 71
0
 72
0
 11
0.1626813977139168
 21
0.354971429
 31
0.0
100
AcDbText
 73
2
  0
TEXT
  5
9E
100
AcDbEntity
100
AcDbText
  8
0
 62
256
370
-1
  6
BYLAYER
 10
0.0138611298877663
 20
0.2850617944444587
 30
0.0
 40
0.1
  1
\U+25a0\U+25a0\U+25a0\U+25a1 \U+25a1\U+25a1\U+25a0\U+25a1  \U+25a0\U+25a1\U+25a1\U+25a0 \U+25a0\U+25a1\U+25a1\U+25a0
 50
0.0
 41
1.0
  7
textstyle4
 71
0
 72
0
 11
0.3763930248278129
 21
0.3669654488890454
 31
0.0
100
AcDbText
 73
2
  0
TEXT
  5
9F
100
AcDbEntity
100
AcDbText
  8
0
 62
256
370
-1
  6
BYLAYER
 10
0.0138611298877663
 20
0.4270617944444586
 30
0.0
 40
0.1
  1
\U+25a0\U+25a1\U+25a1\U+25a1 \U+25a1\U+25a0\U+25a1\U+25a1  \U+25a0\U+25a1\U+25a1\U+25a0 \U+25a0\U+25a0\U+25a0\U+25a1
 50
0.0
 41
1.0
  7
textstyle5
 71
0
 72
0
 11
0.3763930248278129
 21
0.5089654488890452
 31
0.0
100
AcDbText
 73
2
  0
TEXT
  5
A0
100
AcDbEntity
100
AcDbText
  8
0
 62
256
370
-1
  6
BYLAYER
 10
0.1626813977139168
 20
0.567971429
 30
0.0
 40
0.1
  1
\U+d834\U+dd1e
 50
0.0
 41
1.0
  7
textstyle6
 71
0
 72
0
 11
0.1626813977139168
 21
0.6389714289999999
 31
0.0
100
AcDbText
 73
2
  0
TEXT
  5
A1
100
AcDbEntity
100
AcDbText
  8
0
 62
256
370
-1
  6
BYLAYER
 10
0.0138611298877663
 20
0.5690617944444587
 30
0.0
 40
0.1
  1
\U+25a0\U+25a0\U+25a0\U+25a0 \U+25a1\U+25a1\U+25a1\U+25a1  \U+25a0\U+25a1\U+25a1\U+25a0 \U+25a0\U+25a0\U+25a1\U+25a0
 50
0.0
 41
1.0
  7
textstyle7
 71
0
 72
0
 11
0.3763930248278129
 21
0.6509654488890451
 31
0.0
100
AcDbText
 73
2
  0
TEXT
  5
A2
100
AcDbEntity
100
AcDbText
  8
0
 62
256
370
-1
  6
BYLAYER
 10
0.0138611298877663
 20
0.7110617944444586
 30
0.0
 40
0.1
  1
\U+25a0\U+25a1\U+25a1\U+25a0 \U+25a0\U+25a1\U+25a1\U+25a1  \U+25a0\U+25a1\U+25a1\U+25a0 \U+25a1\U+25a0\U+25a1\U+25a0
 50
0.0
 41
1.0
  7
textstyle8
 71
0
 72
0
 11
0.3763930248278129
 21
0.792965448889045
 31
0.0
100
AcDbText
 73
2
  0
TEXT
  5
A3
100
AcDbEntity
100
AcDbText
  8
0
 62
256
370
-1
  6
BYLAYER
 10
0.1626813977139168
 20
0.851971429
 30
0.0
 40
0.1
  1
\U+d83d\U+de15
 50
0.0
 41
1.0
  7
textstyle9
 71
0
 72
0
 11
0.1626813977139168
 21
0.922971429
 31
0.0
100
AcDbText
 73
2
  0
TEXT
  5
A4
100
AcDbEntity
100
AcDbText
  8
0
 62
256
370
-1
  6
BYLAYER
 10
0.0138611298877664
 20
0.8530617944444585
 30
0.0
 40
0.1
  1
\U+25a0\U+25a0\U+25a0\U+25a0 \U+25a1\U+25a1\U+25a1\U+25a1  \U+25a0\U+25a1\U+25a1\U+25a0 \U+25a0\U+25a0\U+25a0\U+25a0
 50
0.0
 41
1.0
  7
textstyle10
 71
0
 72
0
 11
0.376393024827813
 21
0.9349654488890452
 31
0.0
100
AcDbText
 73
2
  0
TEXT
  5
A5
100
AcDbEntity
100
AcDbText
  8
0
 62
256
370
-1
  6
BYLAYER
 10
0.0138611298877663
 20
0.9950617944444584
 30
0.0
 40
0.1
  1
\U+25a0\U+25a1\U+25a0\U+25a0 \U+25a0\U+25a1\U+25a0\U+25a1
 50
0.0
 41
1.0
  7
textstyle11
 71
0
 72
0
 11
0.376393024827813
 21
1.076965448889045
 31
0.0
100
AcDbText
 73
2
  0
TEXT
  5
A6
100
AcDbEntity
100
AcDbText
  8
0
 62
256
370
-1
  6
BYLAYER
 10
0.1626813977139169
 20
1.135971429
 30
0.0
 40
0.1
  1
\U+263a
 50
0.0
 41
1.0
  7
textstyle12
 71
0
 72
0
 11
0.1626813977139169
 21
1.2069714289999998
 31
0.0
100
AcDbText
 73
2
  0
TEXT
  5
A7
100
AcDbEntity
100
AcDbText
  8
0
 62
256
370
-1
  6
BYLAYER
 10
0.0138611298877663
 20
1.1370617944444583
 30
0.0
 40
0.1
  1
\U+25a0\U+25a0\U+25a0\U+25a1 \U+25a1\U+25a1\U+25a0\U+25a1  \U+25a0\U+25a1\U+25a1\U+25a0 \U+25a0\U+25a1\U+25a1\U+25a1
 50
0.0
 41
1.0
  7
textstyle13
 71
0
 72
0
 11
0.376393024827813
 21
1.2189654488890449
 31
0.0
100
AcDbText
 73
2
  0
TEXT
  5
A8
100
AcDbEntity
100
AcDbText
  8
0
 62
256
370
-1
  6
BYLAYER
 10
0.0138611298877662
 20
1.2790617944444582
 30
0.0
 40
0.1
  1
\U+25a0\U+25a1\U+25a0\U+25a0 \U+25a0\U+25a0\U+25a1\U+25a0
 50
0.0
 41
1.0
  7
textstyle14
 71
0
 72
0
 11
0.3763930248278129
 21
1.3609654488890448
 31
0.0
100
AcDbText
 73
2
  0
TEXT
  5
A9
100
AcDbEntity
100
AcDbText
  8
0
 62
256
370
-1
  6
BYLAYER
 10
0.1626813977139169
 20
1.4199714289999994
 30
0.0
 40
0.1
  1
\U+597d
 50
0.0
 41
1.0
  7
textstyle15
 71
0
 72
0
 11
0.1626813977139169
 21
1.4909714289999991
 31
0.0
100
AcDbText
 73
2
  0
TEXT
  5
AA
100
AcDbEntity
100
AcDbText
  8
0
 62
256
370
-1
  6
BYLAYER
 10
0.0138611298877664
 20
1.4210617944444577
 30
0.0
 40
0.1
  1
\U+25a0\U+25a0\U+25a0\U+25a1 \U+25a1\U+25a0\U+25a1\U+25a0  \U+25a0\U+25a1\U+25a0\U+25a1 \U+25a1\U+25a0\U+25a1\U+25a0
 50
0.0
 41
1.0
  7
textstyle16
 71
0
 72
0
 11
0.376393024827813
 21
1.5029654488890443
 31
0.0
100
AcDbText
 73
2
  0
TEXT
  5
AB
100
AcDbEntity
100
AcDbText
  8
0
 62
256
370
-1
  6
BYLAYER
 10
0.0138611298877664
 20
1.5630617944444576
 30
0.0
 40
0.1
  1
\U+25a0\U+25a1\U+25a0\U+25a1 \U+25a1\U+25a1\U+25a1\U+25a1
 50
0.0
 41
1.0
  7
textstyle17
 71
0
 72
0
 11
0.3763930248278128
 21
1.6449654488890442
 31
0.0
100
AcDbText
 73
2
  0
TEXT
  5
AC
100
AcDbEntity
100
AcDbText
  8
0
 62
256
370
-1
  6
BYLAYER
 10
0.1626813977139169
 20
1.7039714289999988
 30
0.0
 40
0.1
  1
\U+4f60
 50
0.0
 41
1.0
  7
textstyle18
 71
0
 72
0
 11
0.1626813977139169
 21
1.7749714289999989
 31
0.0
100
AcDbText
 73
2
  0
TEXT
  5
AD
100
AcDbEntity
100
AcDbText
  8
0
 62
256
370
-1
  6
BYLAYER
 10
0.0138611298877663
 20
1.7050617944444575
 30
0.0
 40
0.1
  1
\U+25a0\U+25a0\U+25a0\U+25a1 \U+25a1\U+25a0\U+25a1\U+25a1  \U+25a0\U+25a1\U+25a0\U+25a0 \U+25a0\U+25a0\U+25a1\U+25a0
 50
0.0
 41
1.0
  7
textstyle19
 71
0
 72
0
 11
0.3763930248278129
 21
1.7869654488890441
 31
0.0
100
AcDbText
 73
2
  0
ENDBLK
  5
AE
100
AcDbEntity
  8
0
100
AcDbBlockEnd
  0
BLOCK
  5
AF
100
AcDbEntity
  8
0
100
AcDbBlockBegin
  2
card
 70
0
 10
0.0
 20
0.0
 30
0.0
  3
card
  1

  0
LINE
  5
B0
100
AcDbEntity
100
AcDbLine
  8
Dimensions
 62
256
370
-1
  6
BYLAYER
 10
0.0
 20
0.0
 30
0.0
 11
3.5
 21
0.0
 31
0.0
  0
LINE
  5
B1
100
AcDbEntity
100
AcDbLine
  8
Dimensions
 62
256
370
-1
  6
BYLAYER
 10
3.5
 20
0.0
 30
0.0
 11
3.5
 21
2.0
 31
0.0
  0
LINE
  5
B2
100
AcDbEntity
100
AcDbLine
  8
Dimensions
 62
256
370
-1
  6
BYLAYER
 10
3.5
 20
2.0
 30
0.0
 11
0.0
 21
2.0
 31
0.0
  0
LINE
  5
B3
100
AcDbEntity
100
AcDbLine
  8
Dimensions
 62
256
370
-1
  6
BYLAYER
 10
0.0
 20
2.0
 30
0.0
 11
0.0
 21
0.0
 31
0.0
  0
TEXT
  5
B4
100
AcDbEntity
100
AcDbText
  8
0
 62
256
370
-1
  6
BYLAYER
 10
0.0
 20
0.0
 30
0.0
 40
0.15
  1
Unicode to Binary
 50
270.0
 41
1.0
  7
textstyle20
 71
0
 72
1
 11
3.2999999999999998
 21
0.9999999999999997
 31
0.0
100
AcDbText
 73
2
  0
TEXT
  5
B5
100
AcDbEntity
100
AcDbText
  8
0
 62
256
370
-1
  6
BYLAYER
 10
2.0596475806932677
 20
0.7135724768742668
 30
0.0
 40
0.1
  1
Upper Case Letters
 50
270.0
 41
1.0
  7
textstyle21
 71
0
 72
1
 11
3.1000000000000001
 21
1.0000000000000011
 31
0.0
100
AcDbText
 73
2
  0
TEXT
  5
B6
100
AcDbEntity
100
AcDbText
  8
0
 62
256
370
-1
  6
BYLAYER
 10
1.4138607321738494
 20
0.2144903654444607
 30
0.0
 40
0.1
  1
\U+25a1\U+25a0\U+25a1\U+25a0 \U+25a0\U+25a1\U+25a1\U+25a0
 50
0.0
 41
1.0
  7
textstyle22
 71
0
 72
0
 11
1.7763926271138966
 21
0.2963940198890452
 31
0.0
100
AcDbText
 73
2
  0
TEXT
  5
B7
100
AcDbEntity
100
AcDbText
  8
0
 62
256
370
-1
  6
BYLAYER
 10
1.5626809999999995
 20
0.3553999999999988
 30
0.0
 40
0.1
  1
X
 50
0.0
 41
1.0
  7
textstyle23
 71
0
 72
0
 11
1.5626809999999998
 21
0.4264000000000002
 31
0.0
100
AcDbText
 73
2
  0
TEXT
  5
B8
100
AcDbEntity
100
AcDbText
  8
0
 62
256
370
-1
  6
BYLAYER
 10
1.413860732173849
 20
0.3564903654444594
 30
0.0
 40
0.1
  1
\U+25a1\U+25a0\U+25a1\U+25a0 \U+25a0\U+25a1\U+25a1\U+25a1
 50
0.0
 41
1.0
  7
textstyle24
 71
0
 72
0
 11
1.7763926271138959
 21
0.4383940198890445
 31
0.0
100
AcDbText
 73
2
  0
TEXT
  5
B9
100
AcDbEntity
100
AcDbText
  8
0
 62
256
370
-1
  6
BYLAYER
 10
1.5626809999999998
 20
0.4973999999999996
 30
0.0
 40
0.1
  1
W
 50
0.0
 41
1.0
  7
textstyle25
 71
0
 72
0
 11
1.5626809999999998
 21
0.5683999999999999
 31
0.0
100
AcDbText
 73
2
  0
TEXT
  5
BA
100
AcDbEntity
100
AcDbText
  8
0
 62
256
370
-1
  6
BYLAYER
 10
1.4138607321738492
 20
0.4984903654444588
 30
0.0
 40
0.1
  1
\U+25a1\U+25a0\U+25a1\U+25a0 \U+25a1\U+25a0\U+25a0\U+25a0
 50
0.0
 41
1.0
  7
textstyle26
 71
0
 72
0
 11
1.7763926271138959
 21
0.580394019889044
 31
0.0
100
AcDbText
 73
2
  0
TEXT
  5
BB
100
AcDbEntity
100
AcDbText
  8
0
 62
256
370
-1
  6
BYLAYER
 10
1.562681
 20
0.6394000000000001
 30
0.0
 40
0.1
  1
V
 50
0.0
 41
1.0
  7
textstyle27
 71
0
 72
0
 11
1.562681
 21
0.7104
 31
0.0
100
AcDbText
 73
2
  0
TEXT
  5
BC
100
AcDbEntity
100
AcDbText
  8
0
 62
256
370
-1
  6
BYLAYER
 10
1.4138607321738494
 20
0.6404903654444589
 30
0.0
 40
0.1
  1
\U+25a1\U+25a0\U+25a1\U+25a0 \U+25a1\U+25a0\U+25a0\U+25a1
 50
0.0
 41
1.0
  7
textstyle28
 71
0
 72
0
 11
1.7763926271138961
 21
0.7223940198890447
 31
0.0
100
AcDbText
 73
2
  0
TEXT
  5
BD
100
AcDbEntity
100
AcDbText
  8
0
 62
256
370
-1
  6
BYLAYER
 10
1.5626810000000002
 20
0.7814000000000004
 30
0.0
 40
0.1
  1
U
 50
0.0
 41
1.0
  7
textstyle29
 71
0
 72
0
 11
1.5626810000000002
 21
0.8524
 31
0.0
100
AcDbText
 73
2
  0
TEXT
  5
BE
100
AcDbEntity
100
AcDbText
  8
0
 62
256
370
-1
  6
BYLAYER
 10
1.4138607321738497
 20
0.7824903654444582
 30
0.0
 40
0.1
  1
\U+25a1\U+25a0\U+25a1\U+25a0 \U+25a1\U+25a0\U+25a1\U+25a0
 50
0.0
 41
1.0
  7
textstyle30
 71
0
 72
0
 11
1.7763926271138963
 21
0.8643940198890457
 31
0.0
100
AcDbText
 73
2
  0
TEXT
  5
BF
100
AcDbEntity
100
AcDbText
  8
0
 62
256
370
-1
  6
BYLAYER
 10
1.5626810000000002
 20
0.9234000000000003
 30
0.0
 40
0.1
  1
T
 50
0.0
 41
1.0
  7
textstyle31
 71
0
 72
0
 11
1.5626810000000002
 21
0.9943999999999997
 31
0.0
100
AcDbText
 73
2
  0
TEXT
  5
C0
100
AcDbEntity
100
AcDbText
  8
0
 62
256
370
-1
  6
BYLAYER
 10
1.4138607321738497
 20
0.924490365444459
 30
0.0
 40
0.1
  1
\U+25a1\U+25a0\U+25a1\U+25a0 \U+25a1\U+25a0\U+25a1\U+25a1
 50
0.0
 41
1.0
  7
textstyle32
 71
0
 72
0
 11
1.7763926271138963
 21
1.0063940198890449
 31
0.0
100
AcDbText
 73
2
  0
TEXT
  5
C1
100
AcDbEntity
100
AcDbText
  8
0
 62
256
370
-1
  6
BYLAYER
 10
1.5626810000000002
 20
1.0653999999999999
 30
0.0
 40
0.1
  1
S
 50
0.0
 41
1.0
  7
textstyle33
 71
0
 72
0
 11
1.5626810000000002
 21
1.1364000000000001
 31
0.0
100
AcDbText
 73
2
  0
TEXT
  5
C2
100
AcDbEntity
100
AcDbText
  8
0
 62
256
370
-1
  6
BYLAYER
 10
1.4138607321738497
 20
1.0664903654444582
 30
0.0
 40
0.1
  1
\U+25a1\U+25a0\U+25a1\U+25a0 \U+25a1\U+25a1\U+25a0\U+25a0
 50
0.0
 41
1.0
  7
textstyle34
 71
0
 72
0
 11
1.7763926271138963
 21
1.1483940198890443
 31
0.0
100
AcDbText
 73
2
  0
TEXT
  5
C3
100
AcDbEntity
100
AcDbText
  8
0
 62
256
370
-1
  6
BYLAYER
 10
1.5626810000000002
 20
1.2073999999999994
 30
0.0
 40
0.1
  1
R
 50
0.0
 41
1.0
  7
textstyle35
 71
0
 72
0
 11
1.5626810000000002
 21
1.2783999999999998
 31
0.0
100
AcDbText
 73
2
  0
TEXT
  5
C4
100
AcDbEntity
100
AcDbText
  8
0
 62
256
370
-1
  6
BYLAYER
 10
1.4138607321738497
 20
1.2084903654444576
 30
0.0
 40
0.1
  1
\U+25a1\U+25a0\U+25a1\U+25a0 \U+25a1\U+25a1\U+25a0\U+25a1
 50
0.0
 41
1.0
  7
textstyle36
 71
0
 72
0
 11
1.7763926271138966
 21
1.2903940198890445
 31
0.0
100
AcDbText
 73
2
  0
TEXT
  5
C5
100
AcDbEntity
100
AcDbText
  8
0
 62
256
370
-1
  6
BYLAYER
 10
1.5626810000000002
 20
1.3493999999999995
 30
0.0
 40
0.1
  1
Q
 50
0.0
 41
1.0
  7
textstyle37
 71
0
 72
0
 11
1.5626810000000002
 21
1.4203999999999997
 31
0.0
100
AcDbText
 73
2
  0
TEXT
  5
C6
100
AcDbEntity
100
AcDbText
  8
0
 62
256
370
-1
  6
BYLAYER
 10
1.4138607321738497
 20
1.3504903654444578
 30
0.0
 40
0.1
  1
\U+25a1\U+25a0\U+25a1\U+25a0 \U+25a1\U+25a1\U+25a1\U+25a0
 50
0.0
 41
1.0
  7
textstyle38
 71
0
 72
0
 11
1.7763926271138963
 21
1.4323940198890452
 31
0.0
100
AcDbText
 73
2
  0
TEXT
  5
C7
100
AcDbEntity
100
AcDbText
  8
0
 62
256
370
-1
  6
BYLAYER
 10
1.5626810000000002
 20
1.4913999999999987
 30
0.0
 40
0.1
  1
P
 50
0.0
 41
1.0
  7
textstyle39
 71
0
 72
0
 11
1.5626810000000002
 21
1.5623999999999987
 31
0.0
100
AcDbText
 73
2
  0
TEXT
  5
C8
100
AcDbEntity
100
AcDbText
  8
0
 62
256
370
-1
  6
BYLAYER
 10
1.4138607321738497
 20
1.4924903654444575
 30
0.0
 40
0.1
  1
\U+25a1\U+25a0\U+25a1\U+25a0 \U+25a1\U+25a1\U+25a1\U+25a1
 50
0.0
 41
1.0
  7
textstyle40
 71
0
 72
0
 11
1.7763926271138963
 21
1.5743940198890445
 31
0.0
100
AcDbText
 73
2
  0
TEXT
  5
C9
100
AcDbEntity
100
AcDbText
  8
0
 62
256
370
-1
  6
BYLAYER
 10
1.5626810000000002
 20
1.6333999999999989
 30
0.0
 40
0.1
  1
O
 50
0.0
 41
1.0
  7
textstyle41
 71
0
 72
0
 11
1.5626810000000002
 21
1.7043999999999992
 31
0.0
100
AcDbText
 73
2
  0
TEXT
  5
CA
100
AcDbEntity
100
AcDbText
  8
0
 62
256
370
-1
  6
BYLAYER
 10
1.4138607321738497
 20
1.6344903654444574
 30
0.0
 40
0.1
  1
\U+25a1\U+25a0\U+25a1\U+25a1 \U+25a0\U+25a0\U+25a0\U+25a0
 50
0.0
 41
1.0
  7
textstyle42
 71
0
 72
0
 11
1.7763926271138966
 21
1.7163940198890439
 31
0.0
100
AcDbText
 73
2
  0
TEXT
  5
CB
100
AcDbEntity
100
AcDbText
  8
0
 62
256
370
-1
  6
BYLAYER
 10
1.562681
 20
1.775399999999999
 30
0.0
 40
0.1
  1
N
 50
0.0
 41
1.0
  7
textstyle43
 71
0
 72
0
 11
1.5626810000000002
 21
1.8463999999999985
 31
0.0
100
AcDbText
 73
2
  0
TEXT
  5
CC
100
AcDbEntity
100
AcDbText
  8
0
 62
256
370
-1
  6
BYLAYER
 10
1.4138607321738497
 20
1.7764903654444575
 30
0.0
 40
0.1
  1
\U+25a1\U+25a0\U+25a1\U+25a1 \U+25a0\U+25a0\U+25a0\U+25a1
 50
0.0
 41
1.0
  7
textstyle44
 71
0
 72
0
 11
1.7763926271138963
 21
1.8583940198890445
 31
0.0
100
AcDbText
 73
2
  0
TEXT
  5
CD
100
AcDbEntity
100
AcDbText
  8
0
 62
256
370
-1
  6
BYLAYER
 10
0.162681
 20
0.0714
 30
0.0
 40
0.1
  1
M
 50
0.0
 41
1.0
  7
textstyle45
 71
0
 72
0
 11
0.162681
 21
0.1424
 31
0.0
100
AcDbText
 73
2
  0
TEXT
  5
CE
100
AcDbEntity
100
AcDbText
  8
0
 62
256
370
-1
  6
BYLAYER
 10
0.0138607321738496
 20
0.0724903654444586
 30
0.0
 40
0.1
  1
\U+25a1\U+25a0\U+25a1\U+25a1 \U+25a0\U+25a0\U+25a1\U+25a0
 50
0.0
 41
1.0
  7
textstyle46
 71
0
 72
0
 11
0.3763926271138959
 21
0.1543940198890453
 31
0.0
100
AcDbText
 73
2
  0
TEXT
  5
CF
100
AcDbEntity
100
AcDbText
  8
0
 62
256
370
-1
  6
BYLAYER
 10
0.162681
 20
0.2134000000000002
 30
0.0
 40
0.1
  1
L
 50
0.0
 41
1.0
  7
textstyle47
 71
0
 72
0
 11
0.1626809999999995
 21
0.2844000000000007
 31
0.0
100
AcDbText
 73
2
  0
TEXT
  5
D0
100
AcDbEntity
100
AcDbText
  8
0
 62
256
370
-1
  6
BYLAYER
 10
-0.1488206655400679
 20
-0.211909634555541
 30
0.0
 40
0.1
  1
\U+25a1\U+25a0\U+25a1\U+25a1 \U+25a0\U+25a0\U+25a1\U+25a1
 50
0.0
 41
1.0
  7
textstyle48
 71
0
 72
0
 11
0.3763926271138961
 21
0.2963940198890449
 31
0.0
100
AcDbText
 73
2
  0
TEXT
  5
D1
100
AcDbEntity
100
AcDbText
  8
0
 62
256
370
-1
  6
BYLAYER
 10
-0.0000003977139173
 20
-0.0709999999999996
 30
0.0
 40
0.1
  1
K
 50
0.0
 41
1.0
  7
textstyle49
 71
0
 72
0
 11
0.1626809999999998
 21
0.4264000000000003
 31
0.0
100
AcDbText
 73
2
  0
TEXT
  5
D2
100
AcDbEntity
100
AcDbText
  8
0
 62
256
370
-1
  6
BYLAYER
 10
-0.1488206655400676
 20
-0.069909634555541
 30
0.0
 40
0.1
  1
\U+25a1\U+25a0\U+25a1\U+25a1 \U+25a0\U+25a1\U+25a0\U+25a0
 50
0.0
 41
1.0
  7
textstyle50
 71
0
 72
0
 11
0.3763926271138959
 21
0.438394019889045
 31
0.0
100
AcDbText
 73
2
  0
TEXT
  5
D3
100
AcDbEntity
100
AcDbText
  8
0
 62
256
370
-1
  6
BYLAYER
 10
0.1626809999999998
 20
0.4974000000000004
 30
0.0
 40
0.1
  1
J
 50
0.0
 41
1.0
  7
textstyle51
 71
0
 72
0
 11
0.1626809999999997
 21
0.5684000000000001
 31
0.0
100
AcDbText
 73
2
  0
TEXT
  5
D4
100
AcDbEntity
100
AcDbText
  8
0
 62
256
370
-1
  6
BYLAYER
 10
-0.1488206655400675
 20
0.0720903654444591
 30
0.0
 40
0.1
  1
\U+25a1\U+25a0\U+25a1\U+25a1 \U+25a0\U+25a1\U+25a0\U+25a1
 50
0.0
 41
1.0
  7
textstyle52
 71
0
 72
0
 11
0.3763926271138959
 21
0.5803940198890456
 31
0.0
100
AcDbText
 73
2
  0
TEXT
  5
D5
100
AcDbEntity
100
AcDbText
  8
0
 62
256
370
-1
  6
BYLAYER
 10
-0.0000003977139168
 20
0.2129999999999999
 30
0.0
 40
0.1
  1
I
 50
0.0
 41
1.0
  7
textstyle53
 71
0
 72
0
 11
0.162681
 21
0.7103999999999999
 31
0.0
100
AcDbText
 73
2
  0
TEXT
  5
D6
100
AcDbEntity
100
AcDbText
  8
0
 62
256
370
-1
  6
BYLAYER
 10
-0.1488206655400678
 20
0.2140903654444592
 30
0.0
 40
0.1
  1
\U+25a1\U+25a0\U+25a1\U+25a1 \U+25a0\U+25a1\U+25a1\U+25a0
 50
0.0
 41
1.0
  7
textstyle54
 71
0
 72
0
 11
0.3763926271138961
 21
0.7223940198890454
 31
0.0
100
AcDbText
 73
2
  0
TEXT
  5
D7
100
AcDbEntity
100
AcDbText
  8
0
 62
256
370
-1
  6
BYLAYER
 10
0.162681
 20
0.7814000000000014
 30
0.0
 40
0.1
  1
H
 50
0.0
 41
1.0
  7
textstyle55
 71
0
 72
0
 11
0.162681
 21
0.8524000000000016
 31
0.0
100
AcDbText
 73
2
  0
TEXT
  5
D8
100
AcDbEntity
100
AcDbText
  8
0
 62
256
370
-1
  6
BYLAYER
 10
-0.1488206655400675
 20
0.3560903654444592
 30
0.0
 40
0.1
  1
\U+25a1\U+25a0\U+25a1\U+25a1 \U+25a0\U+25a1\U+25a1\U+25a1
 50
0.0
 41
1.0
  7
textstyle56
 71
0
 72
0
 11
0.3763926271138961
 21
0.8643940198890461
 31
0.0
100
AcDbText
 73
2
  0
TEXT
  5
D9
100
AcDbEntity
100
AcDbText
  8
0
 62
256
370
-1
  6
BYLAYER
 10
-0.0000003977139168
 20
0.4969999999999999
 30
0.0
 40
0.1
  1
G
 50
0.0
 41
1.0
  7
textstyle57
 71
0
 72
0
 11
0.1626810000000002
 21
0.9944000000000531
 31
0.0
100
AcDbText
 73
2
  0
TEXT
  5
DA
100
AcDbEntity
100
AcDbText
  8
0
 62
256
370
-1
  6
BYLAYER
 10
-0.1488206655400673
 20
0.4980903654444582
 30
0.0
 40
0.1
  1
\U+25a1\U+25a0\U+25a1\U+25a1 \U+25a1\U+25a0\U+25a0\U+25a0
 50
0.0
 41
1.0
  7
textstyle58
 71
0
 72
0
 11
0.3763926271138961
 21
1.0063940198890333
 31
0.0
100
AcDbText
 73
2
  0
TEXT
  5
DB
100
AcDbEntity
100
AcDbText
  8
0
 62
256
370
-1
  6
BYLAYER
 10
0.162681
 20
1.0654000000000017
 30
0.0
 40
0.1
  1
F
 50
0.0
 41
1.0
  7
textstyle59
 71
0
 72
0
 11
0.1626810000000003
 21
1.1364000000000001
 31
0.0
100
AcDbText
 73
2
  0
TEXT
  5
DC
100
AcDbEntity
100
AcDbText
  8
0
 62
256
370
-1
  6
BYLAYER
 10
-0.1488206655400675
 20
0.6400903654444587
 30
0.0
 40
0.1
  1
\U+25a1\U+25a0\U+25a1\U+25a1 \U+25a1\U+25a0\U+25a0\U+25a1
 50
0.0
 41
1.0
  7
textstyle60
 71
0
 72
0
 11
0.3763926271138962
 21
1.1483940198890439
 31
0.0
100
AcDbText
 73
2
  0
TEXT
  5
DD
100
AcDbEntity
100
AcDbText
  8
0
 62
256
370
-1
  6
BYLAYER
 10
-0.0000003977139168
 20
0.781000000000001
 30
0.0
 40
0.1
  1
E
 50
0.0
 41
1.0
  7
textstyle61
 71
0
 72
0
 11
0.1626810000000003
 21
1.2783999999999998
 31
0.0
100
AcDbText
 73
2
  0
TEXT
  5
DE
100
AcDbEntity
100
AcDbText
  8
0
 62
256
370
-1
  6
BYLAYER
 10
-0.1488206655400674
 20
0.7820903654444573
 30
0.0
 40
0.1
  1
\U+25a1\U+25a0\U+25a1\U+25a1 \U+25a1\U+25a0\U+25a1\U+25a0
 50
0.0
 41
1.0
  7
textstyle62
 71
0
 72
0
 11
0.376392627113896
 21
1.2903940198890451
 31
0.0
100
AcDbText
 73
2
  0
TEXT
  5
DF
100
AcDbEntity
100
AcDbText
  8
0
 62
256
370
-1
  6
BYLAYER
 10
0.1626810000000003
 20
1.3493999999999999
 30
0.0
 40
0.1
  1
D
 50
0.0
 41
1.0
  7
textstyle63
 71
0
 72
0
 11
0.1626810000000001
 21
1.4203999999999997
 31
0.0
100
AcDbText
 73
2
  0
TEXT
  5
E0
100
AcDbEntity
100
AcDbText
  8
0
 62
256
370
-1
  6
BYLAYER
 10
-0.1488206655400673
 20
0.9240903654444566
 30
0.0
 40
0.1
  1
\U+25a1\U+25a0\U+25a1\U+25a1 \U+25a1\U+25a0\U+25a1\U+25a1
 50
0.0
 41
1.0
  7
textstyle64
 71
0
 72
0
 11
0.3763926271138963
 21
1.4323940198890444
 31
0.0
100
AcDbText
 73
2
  0
TEXT
  5
E1
100
AcDbEntity
100
AcDbText
  8
0
 62
256
370
-1
  6
BYLAYER
 10
-0.0000003977139169
 20
1.0649999999999997
 30
0.0
 40
0.1
  1
C
 50
0.0
 41
1.0
  7
textstyle65
 71
0
 72
0
 11
0.1626810000000001
 21
1.5623999999999991
 31
0.0
100
AcDbText
 73
2
  0
TEXT
  5
E2
100
AcDbEntity
100
AcDbText
  8
0
 62
256
370
-1
  6
BYLAYER
 10
-0.148820665540067
 20
1.06609036544446
 30
0.0
 40
0.1
  1
\U+25a1\U+25a0\U+25a1\U+25a1 \U+25a1\U+25a1\U+25a0\U+25a0
 50
0.0
 41
1.0
  7
textstyle66
 71
0
 72
0
 11
0.3763926271138961
 21
1.574394019889044
 31
0.0
100
AcDbText
 73
2
  0
TEXT
  5
E3
100
AcDbEntity
100
AcDbText
  8
0
 62
256
370
-1
  6
BYLAYER
 10
0.1626810000000001
 20
1.6333999999999989
 30
0.0
 40
0.1
  1
B
 50
0.0
 41
1.0
  7
textstyle67
 71
0
 72
0
 11
0.1626810000000001
 21
1.7043999999999986
 31
0.0
100
AcDbText
 73
2
  0
TEXT
  5
E4
100
AcDbEntity
100
AcDbText
  8
0
 62
256
370
-1
  6
BYLAYER
 10
-0.148820665540067
 20
1.2080903654444564
 30
0.0
 40
0.1
  1
\U+25a1\U+25a0\U+25a1\U+25a1 \U+25a1\U+25a1\U+25a0\U+25a1
 50
0.0
 41
1.0
  7
textstyle68
 71
0
 72
0
 11
0.3763926271138958
 21
1.7163940198890442
 31
0.0
100
AcDbText
 73
2
  0
TEXT
  5
E5
100
AcDbEntity
100
AcDbText
  8
0
 62
256
370
-1
  6
BYLAYER
 10
-0.0000003977139168
 20
1.3489999999999991
 30
0.0
 40
0.1
  1
A
 50
0.0
 41
1.0
  7
textstyle69
 71
0
 72
0
 11
0.1626810000000001
 21
1.8463999999999985
 31
0.0
100
AcDbText
 73
2
  0
TEXT
  5
E6
100
AcDbEntity
100
AcDbText
  8
0
 62
256
370
-1
  6
BYLAYER
 10
-0.1488206655400672
 20
1.3500903654444569
 30
0.0
 40
0.1
  1
\U+25a1\U+25a0\U+25a1\U+25a1 \U+25a1\U+25a1\U+25a1\U+25a0
 50
0.0
 41
1.0
  7
textstyle70
 71
0
 72
0
 11
0.376392627113896
 21
1.8583940198890434
 31
0.0
100
AcDbText
 73
2
  0
TEXT
  5
E7
100
AcDbEntity
100
AcDbText
  8
0
 62
256
370
-1
  6
BYLAYER
 10
1.562681
 20
0.0714000000000019
 30
0.0
 40
0.1
  1
Z
 50
0.0
 41
1.0
  7
textstyle71
 71
0
 72
0
 11
1.5626810000000004
 21
0.1424
 31
0.0
100
AcDbText
 73
2
  0
TEXT
  5
E8
100
AcDbEntity
100
AcDbText
  8
0
 62
256
370
-1
  6
BYLAYER
 10
1.4138607321738494
 20
0.072490365444455
 30
0.0
 40
0.1
  1
\U+25a1\U+25a0\U+25a1\U+25a0 \U+25a0\U+25a1\U+25a0\U+25a1
 50
0.0
 41
1.0
  7
textstyle72
 71
0
 72
0
 11
1.7763926271138963
 21
0.1543940198890654
 31
0.0
100
AcDbText
 73
2
  0
TEXT
  5
E9
100
AcDbEntity
100
AcDbText
  8
0
 62
256
370
-1
  6
BYLAYER
 10
1.5626810000000002
 20
0.2133999999999983
 30
0.0
 40
0.1
  1
Y
 50
0.0
 41
1.0
  7
textstyle73
 71
0
 72
0
 11
1.5626810000000004
 21
0.2844000000000011
 31
0.0
100
AcDbText
 73
2
  0
ENDBLK
  5
EA
100
AcDbEntity
  8
0
100
AcDbBlockEnd
  0
BLOCK
  5
EB
100
AcDbEntity
  8
0
100
AcDbBlockBegin
  2
row
 70
0
 10
0.0
 20
0.0
 30
0.0
  3
row
  1

  0
LINE
  5
EC
100
AcDbEntity
100
AcDbLine
  8
Dimensions
 62
256
370
-1
  6
BYLAYER
 10
0.0
 20
0.0
 30
0.0
 11
1.3999999999999999
 21
0.0
 31
0.0
  0
LINE
  5
ED
100
AcDbEntity
100
AcDbLine
  8
Dimensions
 62
256
370
-1
  6
BYLAYER
 10
1.3999999999999999
 20
0.0
 30
0.0
 11
1.3999999999999999
 21
0.142
 31
0.0
  0
LINE
  5
EE
100
AcDbEntity
100
AcDbLine
  8
Dimensions
 62
256
370
-1
  6
BYLAYER
 10
1.3999999999999999
 20
0.142
 30
0.0
 11
0.0
 21
0.142
 31
0.0
  0
LINE
  5
EF
100
AcDbEntity
100
AcDbLine
  8
Dimensions
 62
256
370
-1
  6
BYLAYER
 10
0.0
 20
0.142
 30
0.0
 11
0.0
 21
0.0
 31
0.0
  0
TEXT
  5
F0
100
AcDbEntity
100
AcDbText
  8
0
 62
256
370
-1
  6
BYLAYER
 10
0.0626813977139168
 20
-0.0
 30
0.0
 40
0.1
  1
A
 50
0.0
 41
1.0
  7
textstyle74
 71
0
 72
0
 11
0.0626813977139168
 21
0.071
 31
0.0
100
AcDbText
 73
2
  0
TEXT
  5
F1
100
AcDbEntity
100
AcDbText
  8
0
 62
256
370
-1
  6
BYLAYER
 10
-0.0861388701122336
 20
0.0010903654444587
 30
0.0
 40
0.1
  1
\U+25a0\U+25a1\U+25a0\U+25a0 \U+25a0\U+25a0\U+25a0\U+25a1
 50
0.0
 41
1.0
  7
textstyle75
 71
0
 72
0
 11
0.276393024827813
 21
0.0829940198890451
 31
0.0
100
AcDbText
 73
2
  0
ENDBLK
  5
F2
100
AcDbEntity
  8
0
100
AcDbBlockEnd
  0
ENDSEC
  0
SECTION
  2
ENTITIES
  0
LINE
  5
F3
100
AcDbEntity
100
AcDbLine
  8
Dimensions
 62
256
370
-1
  6
BYLAYER
 10
0.0
 20
0.0
 30
0.0
 11
8.5
 21
0.0
 31
0.0
  0
LINE
  5
F4
100
AcDbEntity
100
AcDbLine
  8
Dimensions
 62
256
370
-1
  6
BYLAYER
 10
8.5
 20
0.0
 30
0.0
 11
8.5
 21
11.0
 31
0.0
  0
LINE
  5
F5
100
AcDbEntity
100
AcDbLine
  8
Dimensions
 62
256
370
-1
  6
BYLAYER
 10
8.5
 20
11.0
 30
0.0
 11
0.0
 21
11.0
 31
0.0
  0
LINE
  5
F6
100
AcDbEntity
100
AcDbLine
  8
Dimensions
 62
256
370
-1
  6
BYLAYER
 10
0.0
 20
11.0
 30
0.0
 11
0.0
 21
0.0
 31
0.0
  0
INSERT
  5
F7
100
AcDbEntity
100
AcDbBlockReference
  8
0
 62
256
370
-1
  6
BYLAYER
  2
card
 10
0.75
 20
0.5
 30
0.0
  0
INSERT
  5
F8
100
AcDbEntity
100
AcDbBlockReference
  8
0
 62
256
370
-1
  6
BYLAYER
  2
card
 10
0.75
 20
2.5
 30
0.0
  0
INSERT
  5
F9
100
AcDbEntity
100
AcDbBlockReference
  8
0
 62
256
370
-1
  6
BYLAYER
  2
card
 10
0.75
 20
4.5
 30
0.0
  0
INSERT
  5
FA
100
AcDbEntity
100
AcDbBlockReference
  8
0
 62
256
370
-1
  6
BYLAYER
  2
card
 10
0.75
 20
6.5
 30
0.0
  0
INSERT
  5
FB
100
AcDbEntity
100
AcDbBlockReference
  8
0
 62
256
370
-1
  6
BYLAYER
  2
card
 10
0.75
 20
8.5
 30
0.0
  0
INSERT
  5
FC
100
AcDbEntity
100
AcDbBlockReference
  8
0
 62
256
370
-1
  6
BYLAYER
  2
card4
 10
4.25
 20
4.5
 30
0.0
  0
INSERT
  5
FD
100
AcDbEntity
100
AcDbBlockReference
  8
0
 62
256
370
-1
  6
BYLAYER
  2
card4
 10
4.25
 20
6.5
 30
0.0
  0
INSERT
  5
FE
100
AcDbEntity
100
AcDbBlockReference
  8
0
 62
256
370
-1
  6
BYLAYER
  2
card4
 10
4.25
 20
8.5
 30
0.0
  0
INSERT
  5
FF
100
AcDbEntity
100
AcDbBlockReference
  8
0
 62
256
370
-1
  6
BYLAYER
  2
card
 10
4.25
 20
0.5
 30
0.0
  0
INSERT
  5
100
100
AcDbEntity
100
AcDbBlockReference
  8
0
 62
256
370
-1
  6
BYLAYER
  2
card
 10
4.25
 20
2.5
 30
0.0
  0
ENDSEC
  0
SECTION
  2
OBJECTS
  0
DICTIONARY
  5
C
100
AcDbDictionary
280
0
281
1
  3
ACAD_GROUP
350
D
  3
ACAD_LAYOUT
350
1A
  3
ACAD_MLINESTYLE
350
17
  3
ACAD_PLOTSETTINGS
350
19
  3
ACAD_PLOTSTYLENAME
350
E
  3
AcDbVariableDictionary
350
101
  3
QCAD_OBJECTS
350
102
  0
DICTIONARY
  5
D
100
AcDbDictionary
280
0
281
1
  0
ACDBDICTIONARYWDFLT
  5
E
100
AcDbDictionary
281
1
  3
Normal
350
F
100
AcDbDictionaryWithDefault
340
F
  0
ACDBPLACEHOLDER
  5
F
  0
DICTIONARY
  5
17
100
AcDbDictionary
280
0
281
1
  3
Standard
350
18
  0
MLINESTYLE
  5
18
100
AcDbMlineStyle
  2
STANDARD
 70
0
  3

 62
256
 51
90.0
 52
90.0
 71
2
 49
0.5
 62
256
  6
BYLAYER
 49
-0.5
 62
256
  6
BYLAYER
  0
DICTIONARY
  5
19
100
AcDbDictionary
280
0
281
1
  0
DICTIONARY
  5
1A
100
AcDbDictionary
281
1
  3
Layout1
350
1E
  3
Layout2
350
26
  3
Model
350
22
  0
LAYOUT
  5
1E
100
AcDbPlotSettings
  1

  2
none_device
  4

  6

 40
0.0
 41
0.0
 42
0.0
 43
0.0
 44
0.0
 45
0.0
 46
0.0
 47
0.0
 48
0.0
 49
0.0
140
0.0
141
0.0
142
1.0
143
1.0
 70
688
 72
0
 73
0
 74
5
  7

 75
16
147
1.0
148
0.0
149
0.0
100
AcDbLayout
  1
Layout1
 70
1
 71
1
 10
0.0
 20
0.0
 11
420.0
 21
297.0
 12
0.0
 22
0.0
 32
0.0
 14
100000000000000000000.0
 24
100000000000000000000.0
 34
100000000000000000000.0
 15
-100000000000000000000.0
 25
-100000000000000000000.0
 35
-100000000000000000000.0
146
0.0
 13
0.0
 23
0.0
 33
0.0
 16
1.0
 26
0.0
 36
0.0
 17
0.0
 27
1.0
 37
0.0
 76
0
330
1B
  0
LAYOUT
  5
22
100
AcDbPlotSettings
  1

  2
none_device
  4

  6

 40
0.0
 41
0.0
 42
0.0
 43
0.0
 44
0.0
 45
0.0
 46
0.0
 47
0.0
 48
0.0
 49
0.0
140
0.0
141
0.0
142
1.0
143
1.0
 70
1712
 72
0
 73
0
 74
0
  7

 75
0
147
1.0
148
0.0
149
0.0
100
AcDbLayout
  1
Model
 70
1
 71
0
 10
0.0
 20
0.0
 11
12.0
 21
9.0
 12
0.0
 22
0.0
 32
0.0
 14
0.0
 24
0.0
 34
0.0
 15
0.0
 25
0.0
 35
0.0
146
0.0
 13
0.0
 23
0.0
 33
0.0
 16
1.0
 26
0.0
 36
0.0
 17
0.0
 27
1.0
 37
0.0
 76
0
330
1F
  0
LAYOUT
  5
26
100
AcDbPlotSettings
  1

  2
none_device
  4

  6

 40
0.0
 41
0.0
 42
0.0
 43
0.0
 44
0.0
 45
0.0
 46
0.0
 47
0.0
 48
0.0
 49
0.0
140
0.0
141
0.0
142
1.0
143
1.0
 70
688
 72
0
 73
0
 74
5
  7

 75
16
147
1.0
148
0.0
149
0.0
100
AcDbLayout
  1
Layout2
 70
1
 71
2
 10
0.0
 20
0.0
 11
12.0
 21
9.0
 12
0.0
 22
0.0
 32
0.0
 14
0.0
 24
0.0
 34
0.0
 15
0.0
 25
0.0
 35
0.0
146
0.0
 13
0.0
 23
0.0
 33
0.0
 16
1.0
 26
0.0
 36
0.0
 17
0.0
 27
1.0
 37
0.0
 76
0
330
23
  0
DICTIONARY
  5
101
100
AcDbDictionary
281
1
  3
DIMASSOC
350
104
  3
HIDETEXT
350
103
  0
DICTIONARYVAR
  5
103
100
DictionaryVariables
280
0
  1
2
  0
DICTIONARYVAR
  5
104
100
DictionaryVariables
280
0
  1
1
  0
DICTIONARY
  5
102
100
AcDbDictionary
281
1
  3
ColorSettings/ColorMode
350
105
  3
Grid/DisplayGrid00
350
106
  3
Grid/DisplayGrid01
350
107
  3
Grid/DisplayGrid02
350
108
  3
Grid/DisplayGrid03
350
109
  3
Grid/GridSpacingX00
350
10A
  3
Grid/GridSpacingX01
350
10B
  3
Grid/GridSpacingX02
350
10C
  3
Grid/GridSpacingX03
350
10D
  3
Grid/GridSpacingY00
350
10E
  3
Grid/GridSpacingY01
350
10F
  3
Grid/GridSpacingY02
350
110
  3
Grid/GridSpacingY03
350
111
  3
Grid/IsometricGrid00
350
112
  3
Grid/IsometricGrid01
350
113
  3
Grid/IsometricGrid02
350
114
  3
Grid/IsometricGrid03
350
115
  3
Grid/IsometricProjection00
350
116
  3
Grid/IsometricProjection01
350
117
  3
Grid/IsometricProjection02
350
118
  3
Grid/IsometricProjection03
350
119
  3
Grid/MetaGridSpacingX00
350
11A
  3
Grid/MetaGridSpacingX01
350
11B
  3
Grid/MetaGridSpacingX02
350
11C
  3
Grid/MetaGridSpacingX03
350
11D
  3
Grid/MetaGridSpacingY00
350
11E
  3
Grid/MetaGridSpacingY01
350
11F
  3
Grid/MetaGridSpacingY02
350
120
  3
Grid/MetaGridSpacingY03
350
121
  3
MultiPageSettings/Columns
350
122
  3
MultiPageSettings/GlueMarginsBottom
350
123
  3
MultiPageSettings/GlueMarginsLeft
350
124
  3
MultiPageSettings/GlueMarginsRight
350
125
  3
MultiPageSettings/GlueMarginsTop
350
126
  3
MultiPageSettings/PrintCropMarks
350
127
  3
MultiPageSettings/Rows
350
128
  3
PageSettings/OffsetX
350
129
  3
PageSettings/OffsetY
350
12A
  3
PageSettings/PageOrientation
350
12B
  3
PageSettings/PaperHeight
350
12C
  3
PageSettings/PaperWidth
350
12D
  3
PageSettings/Scale
350
12E
  3
PageSettings/ShowPaperBorders
350
12F
  3
UnitSettings/PaperUnit
350
130
  0
XRECORD
  5
105
330
102
100
AcDbXrecord
280
1
1000
BlackWhite
  0
XRECORD
  5
106
330
102
100
AcDbXrecord
280
1
290
1
  0
XRECORD
  5
107
330
102
100
AcDbXrecord
280
1
290
1
  0
XRECORD
  5
108
330
102
100
AcDbXrecord
280
1
290
1
  0
XRECORD
  5
109
330
102
100
AcDbXrecord
280
1
290
1
  0
XRECORD
  5
10A
330
102
100
AcDbXrecord
280
1
1000
auto
  0
XRECORD
  5
10B
330
102
100
AcDbXrecord
280
1
1000
auto
  0
XRECORD
  5
10C
330
102
100
AcDbXrecord
280
1
1000
auto
  0
XRECORD
  5
10D
330
102
100
AcDbXrecord
280
1
1000
auto
  0
XRECORD
  5
10E
330
102
100
AcDbXrecord
280
1
1000
auto
  0
XRECORD
  5
10F
330
102
100
AcDbXrecord
280
1
1000
auto
  0
XRECORD
  5
110
330
102
100
AcDbXrecord
280
1
1000
auto
  0
XRECORD
  5
111
330
102
100
AcDbXrecord
280
1
1000
auto
  0
XRECORD
  5
112
330
102
100
AcDbXrecord
280
1
290
0
  0
XRECORD
  5
113
330
102
100
AcDbXrecord
280
1
290
0
  0
XRECORD
  5
114
330
102
100
AcDbXrecord
280
1
290
0
  0
XRECORD
  5
115
330
102
100
AcDbXrecord
280
1
290
0
  0
XRECORD
  5
116
330
102
100
AcDbXrecord
280
1
 90
0
  0
XRECORD
  5
117
330
102
100
AcDbXrecord
280
1
 90
0
  0
XRECORD
  5
118
330
102
100
AcDbXrecord
280
1
 90
0
  0
XRECORD
  5
119
330
102
100
AcDbXrecord
280
1
 90
0
  0
XRECORD
  5
11A
330
102
100
AcDbXrecord
280
1
1000
auto
  0
XRECORD
  5
11B
330
102
100
AcDbXrecord
280
1
1000
auto
  0
XRECORD
  5
11C
330
102
100
AcDbXrecord
280
1
1000
auto
  0
XRECORD
  5
11D
330
102
100
AcDbXrecord
280
1
1000
auto
  0
XRECORD
  5
11E
330
102
100
AcDbXrecord
280
1
1000
auto
  0
XRECORD
  5
11F
330
102
100
AcDbXrecord
280
1
1000
auto
  0
XRECORD
  5
120
330
102
100
AcDbXrecord
280
1
1000
auto
  0
XRECORD
  5
121
330
102
100
AcDbXrecord
280
1
1000
auto
  0
XRECORD
  5
122
330
102
100
AcDbXrecord
280
1
 90
1
  0
XRECORD
  5
123
330
102
100
AcDbXrecord
280
1
 40
10.0
  0
XRECORD
  5
124
330
102
100
AcDbXrecord
280
1
 40
10.0
  0
XRECORD
  5
125
330
102
100
AcDbXrecord
280
1
 40
10.0
  0
XRECORD
  5
126
330
102
100
AcDbXrecord
280
1
 40
10.0
  0
XRECORD
  5
127
330
102
100
AcDbXrecord
280
1
290
0
  0
XRECORD
  5
128
330
102
100
AcDbXrecord
280
1
 90
1
  0
XRECORD
  5
129
330
102
100
AcDbXrecord
280
1
 40
0.0
  0
XRECORD
  5
12A
330
102
100
AcDbXrecord
280
1
 40
0.0
  0
XRECORD
  5
12B
330
102
100
AcDbXrecord
280
1
1000
Portrait
  0
XRECORD
  5
12C
330
102
100
AcDbXrecord
280
1
 40
279.3999999999999773
  0
XRECORD
  5
12D
330
102
100
AcDbXrecord
280
1
 40
215.9000000000000057
  0
XRECORD
  5
12E
330
102
100
AcDbXrecord
280
1
1000
1:1
  0
XRECORD
  5
12F
330
102
100
AcDbXrecord
280
1
290
1
  0
XRECORD
  5
130
330
102
100
AcDbXrecord
280
1
 90
1
  0
ENDSEC
  0
EOF
