999
dxflib 3.3.4.0
  0
SECTION
  2
HEADER
  9
$ACADVER
  1
AC1015
  9
$HANDSEED
  5
FFFF
  9
$DIMADEC
 70
0
  9
$DIMASZ
 40
2.5
  9
$DIMAUNIT
 70
0
  9
$DIMAZIN
 70
2
  9
$DIMDEC
 70
4
  9
$DIMEXE
 40
1.25
  9
$DIMEXO
 40
0.625
  9
$DIMGAP
 40
0.625
  9
$DIMLUNIT
 70
2
  9
$DIMSCALE
 40
1.0
  9
$DIMTSZ
 40
0.0
  9
$DIMTXT
 40
2.5
  9
$DIMZIN
 70
8
  9
$DWGCODEPAGE
  3
ANSI_1252
  9
$INSUNITS
 70
1
  9
$LTSCALE
 40
1.0
  0
ENDSEC
  0
SECTION
  2
TABLES
  0
TABLE
  2
VPORT
  5
8
100
AcDbSymbolTable
 70
1
  0
VPORT
  5
30
100
AcDbSymbolTableRecord
100
AcDbViewportTableRecord
  2
*Active
 70
0
 10
0.0
 20
0.0
 11
1.0
 21
1.0
 12
286.3055555555554861
 22
148.5
 13
0.0
 23
0.0
 14
10.0
 24
10.0
 15
10.0
 25
10.0
 16
0.0
 26
0.0
 36
1.0
 17
0.0
 27
0.0
 37
0.0
 40
297.0
 41
1.92798353909465
 42
50.0
 43
0.0
 44
0.0
 50
0.0
 51
0.0
 71
0
 72
100
 73
1
 74
3
 75
1
 76
1
 77
0
 78
0
281
0
 65
1
110
0.0
120
0.0
130
0.0
111
1.0
121
0.0
131
0.0
112
0.0
122
1.0
132
0.0
 79
0
146
0.0
  0
ENDTAB
  0
TABLE
  2
LTYPE
  5
5
100
AcDbSymbolTable
 70
21
  0
LTYPE
  5
16
100
AcDbSymbolTableRecord
100
AcDbLinetypeTableRecord
  2
CONTINUOUS
 70
0
  3
Solid line
 72
65
 73
0
 40
0.0
  0
LTYPE
  5
31
100
AcDbSymbolTableRecord
100
AcDbLinetypeTableRecord
  2
CENTER2
 70
0
  3
Center (.5x) ___ _ ___ _ ___ _ ___ _ ___ _ ___
 72
65
 73
4
 40
28.5749999999999993
 49
19.0500000000000007
 74
0
 49
-3.1749999999999998
 74
0
 49
3.1749999999999998
 74
0
 49
-3.1749999999999998
 74
0
  0
LTYPE
  5
32
100
AcDbSymbolTableRecord
100
AcDbLinetypeTableRecord
  2
DIVIDEX2
 70
0
  3
Divide (2x) ________  .  .  ________  .  .  _
 72
65
 73
6
 40
63.5
 49
25.3999999999999986
 74
0
 49
-12.6999999999999993
 74
0
 49
0.0
 74
0
 49
-12.6999999999999993
 74
0
 49
0.0
 74
0
 49
-12.6999999999999993
 74
0
  0
LTYPE
  5
33
100
AcDbSymbolTableRecord
100
AcDbLinetypeTableRecord
  2
DOT2
 70
0
  3
Dot (.5x) .....................................
 72
65
 73
2
 40
3.1749999999999998
 49
0.0
 74
0
 49
-3.1749999999999998
 74
0
  0
LTYPE
  5
34
100
AcDbSymbolTableRecord
100
AcDbLinetypeTableRecord
  2
DASHDOT2
 70
0
  3
Dash dot (.5x) _._._._._._._._._._._._._._._.
 72
65
 73
4
 40
12.6999999999999993
 49
6.3499999999999996
 74
0
 49
-3.1749999999999998
 74
0
 49
0.0
 74
0
 49
-3.1749999999999998
 74
0
  0
LTYPE
  5
35
100
AcDbSymbolTableRecord
100
AcDbLinetypeTableRecord
  2
DIVIDE
 70
0
  3
Divide ____ . . ____ . . ____ . . ____ . . ____
 72
65
 73
6
 40
31.75
 49
12.6999999999999993
 74
0
 49
-6.3499999999999996
 74
0
 49
0.0
 74
0
 49
-6.3499999999999996
 74
0
 49
0.0
 74
0
 49
-6.3499999999999996
 74
0
  0
LTYPE
  5
36
100
AcDbSymbolTableRecord
100
AcDbLinetypeTableRecord
  2
DASHDOT
 70
0
  3
Dash dot __ . __ . __ . __ . __ . __ . __ . __
 72
65
 73
4
 40
25.3999999999999986
 49
12.6999999999999993
 74
0
 49
-6.3499999999999996
 74
0
 49
0.0
 74
0
 49
-6.3499999999999996
 74
0
  0
LTYPE
  5
37
100
AcDbSymbolTableRecord
100
AcDbLinetypeTableRecord
  2
BORDER
 70
0
  3
Border __ __ . __ __ . __ __ . __ __ . __ __ .
 72
65
 73
6
 40
44.4500000000000028
 49
12.6999999999999993
 74
0
 49
-6.3499999999999996
 74
0
 49
12.6999999999999993
 74
0
 49
-6.3499999999999996
 74
0
 49
0.0
 74
0
 49
-6.3499999999999996
 74
0
  0
LTYPE
  5
38
100
AcDbSymbolTableRecord
100
AcDbLinetypeTableRecord
  2
DASHDOTX2
 70
0
  3
Dash dot (2x) ____  .  ____  .  ____  .  ___
 72
65
 73
4
 40
50.7999999999999972
 49
25.3999999999999986
 74
0
 49
-12.6999999999999993
 74
0
 49
0.0
 74
0
 49
-12.6999999999999993
 74
0
  0
LTYPE
  5
39
100
AcDbSymbolTableRecord
100
AcDbLinetypeTableRecord
  2
CENTERX2
 70
0
  3
Center (2x) ________  __  ________  __  _____
 72
65
 73
4
 40
101.5999999999999943
 49
63.5
 74
0
 49
-12.6999999999999993
 74
0
 49
12.6999999999999993
 74
0
 49
-12.6999999999999993
 74
0
  0
LTYPE
  5
3A
100
AcDbSymbolTableRecord
100
AcDbLinetypeTableRecord
  2
BORDER2
 70
0
  3
Border (.5x) __.__.__.__.__.__.__.__.__.__.__.
 72
65
 73
6
 40
22.2250000000000014
 49
6.3499999999999996
 74
0
 49
-3.1749999999999998
 74
0
 49
6.3499999999999996
 74
0
 49
-3.1749999999999998
 74
0
 49
0.0
 74
0
 49
-3.1749999999999998
 74
0
  0
LTYPE
  5
3B
100
AcDbSymbolTableRecord
100
AcDbLinetypeTableRecord
  2
BORDERX2
 70
0
  3
Border (2x) ____  ____  .  ____  ____  .  ___
 72
65
 73
6
 40
88.9000000000000057
 49
25.3999999999999986
 74
0
 49
-12.6999999999999993
 74
0
 49
25.3999999999999986
 74
0
 49
-12.6999999999999993
 74
0
 49
0.0
 74
0
 49
-12.6999999999999993
 74
0
  0
LTYPE
  5
14
100
AcDbSymbolTableRecord
100
AcDbLinetypeTableRecord
  2
BYBLOCK
 70
0
  3

 72
65
 73
0
 40
0.0
  0
LTYPE
  5
15
100
AcDbSymbolTableRecord
100
AcDbLinetypeTableRecord
  2
BYLAYER
 70
0
  3

 72
65
 73
0
 40
0.0
  0
LTYPE
  5
3C
100
AcDbSymbolTableRecord
100
AcDbLinetypeTableRecord
  2
DASHED2
 70
0
  3
Dashed (.5x) _ _ _ _ _ _ _ _ _ _ _ _ _ _ _ _ _
 72
65
 73
2
 40
9.5250000000000004
 49
6.3499999999999996
 74
0
 49
-3.1749999999999998
 74
0
  0
LTYPE
  5
3D
100
AcDbSymbolTableRecord
100
AcDbLinetypeTableRecord
  2
CENTER
 70
0
  3
Center ____ _ ____ _ ____ _ ____ _ ____ _ ____
 72
65
 73
4
 40
50.7999999999999972
 49
31.75
 74
0
 49
-6.3499999999999996
 74
0
 49
6.3499999999999996
 74
0
 49
-6.3499999999999996
 74
0
  0
LTYPE
  5
3E
100
AcDbSymbolTableRecord
100
AcDbLinetypeTableRecord
  2
DIVIDE2
 70
0
  3
Divide (.5x) __..__..__..__..__..__..__..__.._
 72
65
 73
6
 40
15.875
 49
6.3499999999999996
 74
0
 49
-3.1749999999999998
 74
0
 49
0.0
 74
0
 49
-3.1749999999999998
 74
0
 49
0.0
 74
0
 49
-3.1749999999999998
 74
0
  0
LTYPE
  5
3F
100
AcDbSymbolTableRecord
100
AcDbLinetypeTableRecord
  2
DASHED
 70
0
  3
Dashed __ __ __ __ __ __ __ __ __ __ __ __ __ _
 72
65
 73
2
 40
19.0500000000000007
 49
12.6999999999999993
 74
0
 49
-6.3499999999999996
 74
0
  0
LTYPE
  5
40
100
AcDbSymbolTableRecord
100
AcDbLinetypeTableRecord
  2
DOTX2
 70
0
  3
Dot (2x) .  .  .  .  .  .  .  .  .  .  .  .  .
 72
65
 73
2
 40
12.6999999999999993
 49
0.0
 74
0
 49
-12.6999999999999993
 74
0
  0
LTYPE
  5
41
100
AcDbSymbolTableRecord
100
AcDbLinetypeTableRecord
  2
DASHEDX2
 70
0
  3
Dashed (2x) ____  ____  ____  ____  ____  ___
 72
65
 73
2
 40
38.1000000000000014
 49
25.3999999999999986
 74
0
 49
-12.6999999999999993
 74
0
  0
LTYPE
  5
42
100
AcDbSymbolTableRecord
100
AcDbLinetypeTableRecord
  2
DOT
 70
0
  3
Dot . . . . . . . . . . . . . . . . . . . . . .
 72
65
 73
2
 40
6.3499999999999996
 49
0.0
 74
0
 49
-6.3499999999999996
 74
0
  0
ENDTAB
  0
TABLE
  2
LAYER
  5
2
100
AcDbSymbolTable
 70
3
  0
LAYER
  5
43
100
AcDbSymbolTableRecord
100
AcDbLayerTableRecord
  2
Dimensions
 70
1
 62
-3
420
65280
  6
CONTINUOUS
370
0
390
F
  0
LAYER
  5
44
100
AcDbSymbolTableRecord
100
AcDbLayerTableRecord
  2
Outer dimensions
 70
0
 62
9
420
12632256
  6
CONTINUOUS
370
0
390
F
  0
LAYER
  5
10
100
AcDbSymbolTableRecord
100
AcDbLayerTableRecord
  2
0
 70
0
 62
7
420
16777215
  6
CONTINUOUS
370
25
390
F
  0
ENDTAB
  0
TABLE
  2
STYLE
  5
3
100
AcDbSymbolTable
 70
55
  0
STYLE
  5
45
100
AcDbSymbolTableRecord
100
AcDbTextStyleTableRecord
  2
Standard
 70
0
 40
0.0
 41
1.0
 50
0.0
 71
0
 42
2.5
  3

  4

1001
ACAD
1000
txt
1071
0
  0
STYLE
  5
46
100
AcDbSymbolTableRecord
100
AcDbTextStyleTableRecord
  2
textstyle0
 70
0
 40
0.0
 41
1.0
 50
0.0
 71
0
 42
0.15
  3

  4

1001
ACAD
1000
Droid Sans [unknown]
1071
0
  0
STYLE
  5
47
100
AcDbSymbolTableRecord
100
AcDbTextStyleTableRecord
  2
textstyle1
 70
0
 40
0.0
 41
1.0
 50
0.0
 71
0
 42
0.1
  3

  4

1001
ACAD
1000
Droid Sans [unknown]
1071
0
  0
STYLE
  5
48
100
AcDbSymbolTableRecord
100
AcDbTextStyleTableRecord
  2
textstyle2
 70
0
 40
0.0
 41
1.0
 50
0.0
 71
0
 42
0.1
  3

  4

1001
ACAD
1000
Droid Sans [unknown]
1071
0
  0
STYLE
  5
49
100
AcDbSymbolTableRecord
100
AcDbTextStyleTableRecord
  2
textstyle3
 70
0
 40
0.0
 41
1.0
 50
0.0
 71
0
 42
0.1
  3

  4

1001
ACAD
1000
Droid Sans Mono
1071
0
  0
STYLE
  5
4A
100
AcDbSymbolTableRecord
100
AcDbTextStyleTableRecord
  2
textstyle4
 70
0
 40
0.0
 41
1.0
 50
0.0
 71
0
 42
0.1
  3

  4

1001
ACAD
1000
Droid Sans [unknown]
1071
0
  0
STYLE
  5
4B
100
AcDbSymbolTableRecord
100
AcDbTextStyleTableRecord
  2
textstyle5
 70
0
 40
0.0
 41
1.0
 50
0.0
 71
0
 42
0.1
  3

  4

1001
ACAD
1000
Droid Sans Mono
1071
0
  0
STYLE
  5
4C
100
AcDbSymbolTableRecord
100
AcDbTextStyleTableRecord
  2
textstyle6
 70
0
 40
0.0
 41
1.0
 50
0.0
 71
0
 42
0.1
  3

  4

1001
ACAD
1000
Droid Sans [unknown]
1071
0
  0
STYLE
  5
4D
100
AcDbSymbolTableRecord
100
AcDbTextStyleTableRecord
  2
textstyle7
 70
0
 40
0.0
 41
1.0
 50
0.0
 71
0
 42
0.1
  3

  4

1001
ACAD
1000
Droid Sans Mono
1071
0
  0
STYLE
  5
4E
100
AcDbSymbolTableRecord
100
AcDbTextStyleTableRecord
  2
textstyle8
 70
0
 40
0.0
 41
1.0
 50
0.0
 71
0
 42
0.1
  3

  4

1001
ACAD
1000
Droid Sans [unknown]
1071
0
  0
STYLE
  5
4F
100
AcDbSymbolTableRecord
100
AcDbTextStyleTableRecord
  2
textstyle9
 70
0
 40
0.0
 41
1.0
 50
0.0
 71
0
 42
0.1
  3

  4

1001
ACAD
1000
Droid Sans Mono
1071
0
  0
STYLE
  5
50
100
AcDbSymbolTableRecord
100
AcDbTextStyleTableRecord
  2
textstyle10
 70
0
 40
0.0
 41
1.0
 50
0.0
 71
0
 42
0.1
  3

  4

1001
ACAD
1000
Droid Sans [unknown]
1071
0
  0
STYLE
  5
51
100
AcDbSymbolTableRecord
100
AcDbTextStyleTableRecord
  2
textstyle11
 70
0
 40
0.0
 41
1.0
 50
0.0
 71
0
 42
0.1
  3

  4

1001
ACAD
1000
Droid Sans Mono
1071
0
  0
STYLE
  5
52
100
AcDbSymbolTableRecord
100
AcDbTextStyleTableRecord
  2
textstyle12
 70
0
 40
0.0
 41
1.0
 50
0.0
 71
0
 42
0.1
  3

  4

1001
ACAD
1000
Droid Sans [unknown]
1071
0
  0
STYLE
  5
53
100
AcDbSymbolTableRecord
100
AcDbTextStyleTableRecord
  2
textstyle13
 70
0
 40
0.0
 41
1.0
 50
0.0
 71
0
 42
0.1
  3

  4

1001
ACAD
1000
Droid Sans Mono
1071
0
  0
STYLE
  5
54
100
AcDbSymbolTableRecord
100
AcDbTextStyleTableRecord
  2
textstyle14
 70
0
 40
0.0
 41
1.0
 50
0.0
 71
0
 42
0.1
  3

  4

1001
ACAD
1000
Droid Sans [unknown]
1071
0
  0
STYLE
  5
55
100
AcDbSymbolTableRecord
100
AcDbTextStyleTableRecord
  2
textstyle15
 70
0
 40
0.0
 41
1.0
 50
0.0
 71
0
 42
0.1
  3

  4

1001
ACAD
1000
Droid Sans Mono
1071
0
  0
STYLE
  5
56
100
AcDbSymbolTableRecord
100
AcDbTextStyleTableRecord
  2
textstyle16
 70
0
 40
0.0
 41
1.0
 50
0.0
 71
0
 42
0.1
  3

  4

1001
ACAD
1000
Droid Sans [unknown]
1071
0
  0
STYLE
  5
57
100
AcDbSymbolTableRecord
100
AcDbTextStyleTableRecord
  2
textstyle17
 70
0
 40
0.0
 41
1.0
 50
0.0
 71
0
 42
0.1
  3

  4

1001
ACAD
1000
Droid Sans Mono
1071
0
  0
STYLE
  5
58
100
AcDbSymbolTableRecord
100
AcDbTextStyleTableRecord
  2
textstyle18
 70
0
 40
0.0
 41
1.0
 50
0.0
 71
0
 42
0.1
  3

  4

1001
ACAD
1000
Droid Sans [unknown]
1071
0
  0
STYLE
  5
59
100
AcDbSymbolTableRecord
100
AcDbTextStyleTableRecord
  2
textstyle19
 70
0
 40
0.0
 41
1.0
 50
0.0
 71
0
 42
0.1
  3

  4

1001
ACAD
1000
Droid Sans Mono
1071
0
  0
STYLE
  5
5A
100
AcDbSymbolTableRecord
100
AcDbTextStyleTableRecord
  2
textstyle20
 70
0
 40
0.0
 41
1.0
 50
0.0
 71
0
 42
0.1
  3

  4

1001
ACAD
1000
Droid Sans [unknown]
1071
0
  0
STYLE
  5
5B
100
AcDbSymbolTableRecord
100
AcDbTextStyleTableRecord
  2
textstyle21
 70
0
 40
0.0
 41
1.0
 50
0.0
 71
0
 42
0.1
  3

  4

1001
ACAD
1000
Droid Sans Mono
1071
0
  0
STYLE
  5
5C
100
AcDbSymbolTableRecord
100
AcDbTextStyleTableRecord
  2
textstyle22
 70
0
 40
0.0
 41
1.0
 50
0.0
 71
0
 42
0.1
  3

  4

1001
ACAD
1000
Droid Sans [unknown]
1071
0
  0
STYLE
  5
5D
100
AcDbSymbolTableRecord
100
AcDbTextStyleTableRecord
  2
textstyle23
 70
0
 40
0.0
 41
1.0
 50
0.0
 71
0
 42
0.1
  3

  4

1001
ACAD
1000
Droid Sans Mono
1071
0
  0
STYLE
  5
5E
100
AcDbSymbolTableRecord
100
AcDbTextStyleTableRecord
  2
textstyle24
 70
0
 40
0.0
 41
1.0
 50
0.0
 71
0
 42
0.1
  3

  4

1001
ACAD
1000
Droid Sans [unknown]
1071
0
  0
STYLE
  5
5F
100
AcDbSymbolTableRecord
100
AcDbTextStyleTableRecord
  2
textstyle25
 70
0
 40
0.0
 41
1.0
 50
0.0
 71
0
 42
0.1
  3

  4

1001
ACAD
1000
Droid Sans Mono
1071
0
  0
STYLE
  5
60
100
AcDbSymbolTableRecord
100
AcDbTextStyleTableRecord
  2
textstyle26
 70
0
 40
0.0
 41
1.0
 50
0.0
 71
0
 42
0.1
  3

  4

1001
ACAD
1000
Droid Sans [unknown]
1071
0
  0
STYLE
  5
61
100
AcDbSymbolTableRecord
100
AcDbTextStyleTableRecord
  2
textstyle27
 70
0
 40
0.0
 41
1.0
 50
0.0
 71
0
 42
0.1
  3

  4

1001
ACAD
1000
Droid Sans Mono
1071
0
  0
STYLE
  5
62
100
AcDbSymbolTableRecord
100
AcDbTextStyleTableRecord
  2
textstyle28
 70
0
 40
0.0
 41
1.0
 50
0.0
 71
0
 42
0.1
  3

  4

1001
ACAD
1000
Droid Sans [unknown]
1071
0
  0
STYLE
  5
63
100
AcDbSymbolTableRecord
100
AcDbTextStyleTableRecord
  2
textstyle29
 70
0
 40
0.0
 41
1.0
 50
0.0
 71
0
 42
0.1
  3

  4

1001
ACAD
1000
Droid Sans Mono
1071
0
  0
STYLE
  5
64
100
AcDbSymbolTableRecord
100
AcDbTextStyleTableRecord
  2
textstyle30
 70
0
 40
0.0
 41
1.0
 50
0.0
 71
0
 42
0.1
  3

  4

1001
ACAD
1000
Droid Sans [unknown]
1071
0
  0
STYLE
  5
65
100
AcDbSymbolTableRecord
100
AcDbTextStyleTableRecord
  2
textstyle31
 70
0
 40
0.0
 41
1.0
 50
0.0
 71
0
 42
0.1
  3

  4

1001
ACAD
1000
Droid Sans Mono
1071
0
  0
STYLE
  5
66
100
AcDbSymbolTableRecord
100
AcDbTextStyleTableRecord
  2
textstyle32
 70
0
 40
0.0
 41
1.0
 50
0.0
 71
0
 42
0.1
  3

  4

1001
ACAD
1000
Droid Sans [unknown]
1071
0
  0
STYLE
  5
67
100
AcDbSymbolTableRecord
100
AcDbTextStyleTableRecord
  2
textstyle33
 70
0
 40
0.0
 41
1.0
 50
0.0
 71
0
 42
0.1
  3

  4

1001
ACAD
1000
Droid Sans Mono
1071
0
  0
STYLE
  5
68
100
AcDbSymbolTableRecord
100
AcDbTextStyleTableRecord
  2
textstyle34
 70
0
 40
0.0
 41
1.0
 50
0.0
 71
0
 42
0.1
  3

  4

1001
ACAD
1000
Droid Sans [unknown]
1071
0
  0
STYLE
  5
69
100
AcDbSymbolTableRecord
100
AcDbTextStyleTableRecord
  2
textstyle35
 70
0
 40
0.0
 41
1.0
 50
0.0
 71
0
 42
0.1
  3

  4

1001
ACAD
1000
Droid Sans Mono
1071
0
  0
STYLE
  5
6A
100
AcDbSymbolTableRecord
100
AcDbTextStyleTableRecord
  2
textstyle36
 70
0
 40
0.0
 41
1.0
 50
0.0
 71
0
 42
0.1
  3

  4

1001
ACAD
1000
Droid Sans [unknown]
1071
0
  0
STYLE
  5
6B
100
AcDbSymbolTableRecord
100
AcDbTextStyleTableRecord
  2
textstyle37
 70
0
 40
0.0
 41
1.0
 50
0.0
 71
0
 42
0.1
  3

  4

1001
ACAD
1000
Droid Sans Mono
1071
0
  0
STYLE
  5
6C
100
AcDbSymbolTableRecord
100
AcDbTextStyleTableRecord
  2
textstyle38
 70
0
 40
0.0
 41
1.0
 50
0.0
 71
0
 42
0.1
  3

  4

1001
ACAD
1000
Droid Sans [unknown]
1071
0
  0
STYLE
  5
6D
100
AcDbSymbolTableRecord
100
AcDbTextStyleTableRecord
  2
textstyle39
 70
0
 40
0.0
 41
1.0
 50
0.0
 71
0
 42
0.1
  3

  4

1001
ACAD
1000
Droid Sans Mono
1071
0
  0
STYLE
  5
6E
100
AcDbSymbolTableRecord
100
AcDbTextStyleTableRecord
  2
textstyle40
 70
0
 40
0.0
 41
1.0
 50
0.0
 71
0
 42
0.1
  3

  4

1001
ACAD
1000
Droid Sans [unknown]
1071
0
  0
STYLE
  5
6F
100
AcDbSymbolTableRecord
100
AcDbTextStyleTableRecord
  2
textstyle41
 70
0
 40
0.0
 41
1.0
 50
0.0
 71
0
 42
0.1
  3

  4

1001
ACAD
1000
Droid Sans Mono
1071
0
  0
STYLE
  5
70
100
AcDbSymbolTableRecord
100
AcDbTextStyleTableRecord
  2
textstyle42
 70
0
 40
0.0
 41
1.0
 50
0.0
 71
0
 42
0.1
  3

  4

1001
ACAD
1000
Droid Sans [unknown]
1071
0
  0
STYLE
  5
71
100
AcDbSymbolTableRecord
100
AcDbTextStyleTableRecord
  2
textstyle43
 70
0
 40
0.0
 41
1.0
 50
0.0
 71
0
 42
0.1
  3

  4

1001
ACAD
1000
Droid Sans Mono
1071
0
  0
STYLE
  5
72
100
AcDbSymbolTableRecord
100
AcDbTextStyleTableRecord
  2
textstyle44
 70
0
 40
0.0
 41
1.0
 50
0.0
 71
0
 42
0.1
  3

  4

1001
ACAD
1000
Droid Sans [unknown]
1071
0
  0
STYLE
  5
73
100
AcDbSymbolTableRecord
100
AcDbTextStyleTableRecord
  2
textstyle45
 70
0
 40
0.0
 41
1.0
 50
0.0
 71
0
 42
0.1
  3

  4

1001
ACAD
1000
Droid Sans Mono
1071
0
  0
STYLE
  5
74
100
AcDbSymbolTableRecord
100
AcDbTextStyleTableRecord
  2
textstyle46
 70
0
 40
0.0
 41
1.0
 50
0.0
 71
0
 42
0.1
  3

  4

1001
ACAD
1000
Droid Sans [unknown]
1071
0
  0
STYLE
  5
75
100
AcDbSymbolTableRecord
100
AcDbTextStyleTableRecord
  2
textstyle47
 70
0
 40
0.0
 41
1.0
 50
0.0
 71
0
 42
0.1
  3

  4

1001
ACAD
1000
Droid Sans Mono
1071
0
  0
STYLE
  5
76
100
AcDbSymbolTableRecord
100
AcDbTextStyleTableRecord
  2
textstyle48
 70
0
 40
0.0
 41
1.0
 50
0.0
 71
0
 42
0.1
  3

  4

1001
ACAD
1000
Droid Sans [unknown]
1071
0
  0
STYLE
  5
77
100
AcDbSymbolTableRecord
100
AcDbTextStyleTableRecord
  2
textstyle49
 70
0
 40
0.0
 41
1.0
 50
0.0
 71
0
 42
0.1
  3

  4

1001
ACAD
1000
Droid Sans Mono
1071
0
  0
STYLE
  5
78
100
AcDbSymbolTableRecord
100
AcDbTextStyleTableRecord
  2
textstyle50
 70
0
 40
0.0
 41
1.0
 50
0.0
 71
0
 42
0.1
  3

  4

1001
ACAD
1000
Droid Sans [unknown]
1071
0
  0
STYLE
  5
79
100
AcDbSymbolTableRecord
100
AcDbTextStyleTableRecord
  2
textstyle51
 70
0
 40
0.0
 41
1.0
 50
0.0
 71
0
 42
0.1
  3

  4

1001
ACAD
1000
Droid Sans Mono
1071
0
  0
STYLE
  5
7A
100
AcDbSymbolTableRecord
100
AcDbTextStyleTableRecord
  2
textstyle52
 70
0
 40
0.0
 41
1.0
 50
0.0
 71
0
 42
0.1
  3

  4

1001
ACAD
1000
Droid Sans [unknown]
1071
0
  0
STYLE
  5
7B
100
AcDbSymbolTableRecord
100
AcDbTextStyleTableRecord
  2
textstyle53
 70
0
 40
0.0
 41
1.0
 50
0.0
 71
0
 42
0.1
  3

  4

1001
ACAD
1000
Droid Sans Mono
1071
0
  0
ENDTAB
  0
TABLE
  2
VIEW
  5
6
100
AcDbSymbolTable
 70
0
  0
ENDTAB
  0
TABLE
  2
UCS
  5
7
100
AcDbSymbolTable
 70
0
  0
ENDTAB
  0
TABLE
  2
APPID
  5
9
100
AcDbSymbolTable
 70
1
  0
APPID
  5
12
100
AcDbSymbolTableRecord
100
AcDbRegAppTableRecord
  2
ACAD
 70
0
  0
APPID
  5
7C
100
AcDbSymbolTableRecord
100
AcDbRegAppTableRecord
  2
QCAD
 70
0
  0
ENDTAB
  0
TABLE
  2
DIMSTYLE
  5
A
100
AcDbSymbolTable
 70
1
100
AcDbDimStyleTable
 71
0
  0
DIMSTYLE
105
27
100
AcDbSymbolTableRecord
100
AcDbDimStyleTableRecord
  2
Standard
 41
2.5
 42
0.625
 43
3.75
 44
1.25
 70
0
 73
0
 74
0
 77
1
 78
8
140
2.5
141
2.5
143
0.03937007874016
147
0.625
171
3
172
1
271
2
272
2
274
3
278
44
283
0
284
8
340
45
  0
ENDTAB
  0
TABLE
  2
BLOCK_RECORD
  5
1
100
AcDbSymbolTable
 70
1
  0
BLOCK_RECORD
  5
1F
100
AcDbSymbolTableRecord
100
AcDbBlockTableRecord
  2
*Model_Space
340
22
  0
BLOCK_RECORD
  5
1B
100
AcDbSymbolTableRecord
100
AcDbBlockTableRecord
  2
*Paper_Space
340
1E
  0
BLOCK_RECORD
  5
23
100
AcDbSymbolTableRecord
100
AcDbBlockTableRecord
  2
*Paper_Space0
340
26
  0
BLOCK_RECORD
  5
7D
100
AcDbSymbolTableRecord
100
AcDbBlockTableRecord
  2
card
340
0
  0
BLOCK_RECORD
  5
7E
100
AcDbSymbolTableRecord
100
AcDbBlockTableRecord
  2
safearea
340
0
  0
ENDTAB
  0
ENDSEC
  0
SECTION
  2
BLOCKS
  0
BLOCK
  5
20
100
AcDbEntity
  8
0
100
AcDbBlockBegin
  2
*Model_Space
 70
0
 10
0.0
 20
0.0
 30
0.0
  3
*Model_Space
  1

  0
ENDBLK
  5
21
100
AcDbEntity
  8
0
100
AcDbBlockEnd
  0
BLOCK
  5
1C
100
AcDbEntity
 67
1
  8
0
100
AcDbBlockBegin
  2
*Paper_Space
 70
0
 10
0.0
 20
0.0
 30
0.0
  3
*Paper_Space
  1

  0
ENDBLK
  5
1D
100
AcDbEntity
 67
1
  8
0
100
AcDbBlockEnd
  0
BLOCK
  5
24
100
AcDbEntity
  8
0
100
AcDbBlockBegin
  2
*Paper_Space0
 70
0
 10
0.0
 20
0.0
 30
0.0
  3
*Paper_Space0
  1

  0
ENDBLK
  5
25
100
AcDbEntity
  8
0
100
AcDbBlockEnd
  0
BLOCK
  5
7F
100
AcDbEntity
  8
0
100
AcDbBlockBegin
  2
card
 70
0
 10
0.0
 20
0.0
 30
0.0
  3
card
  1

  0
LINE
  5
80
100
AcDbEntity
100
AcDbLine
  8
Dimensions
 62
256
370
-1
  6
BYLAYER
 10
0.0
 20
0.0
 30
0.0
 11
3.5
 21
0.0
 31
0.0
  0
LINE
  5
81
100
AcDbEntity
100
AcDbLine
  8
Dimensions
 62
256
370
-1
  6
BYLAYER
 10
3.5
 20
0.0
 30
0.0
 11
3.5
 21
2.0
 31
0.0
  0
LINE
  5
82
100
AcDbEntity
100
AcDbLine
  8
Dimensions
 62
256
370
-1
  6
BYLAYER
 10
3.5
 20
2.0
 30
0.0
 11
0.0
 21
2.0
 31
0.0
  0
LINE
  5
83
100
AcDbEntity
100
AcDbLine
  8
Dimensions
 62
256
370
-1
  6
BYLAYER
 10
0.0
 20
2.0
 30
0.0
 11
0.0
 21
0.0
 31
0.0
  0
TEXT
  5
84
100
AcDbEntity
100
AcDbText
  8
0
 62
256
370
-1
  6
BYLAYER
 10
0.0
 20
0.0
 30
0.0
 40
0.15
  1
Unicode to Binary
 50
270.0
 41
1.0
  7
textstyle0
 71
0
 72
1
 11
3.2999999999999998
 21
0.9999999999999997
 31
0.0
100
AcDbText
 73
2
  0
TEXT
  5
85
100
AcDbEntity
100
AcDbText
  8
0
 62
256
370
-1
  6
BYLAYER
 10
2.0596475806932677
 20
0.7135724768742668
 30
0.0
 40
0.1
  1
Upper Case Letters
 50
270.0
 41
1.0
  7
textstyle1
 71
0
 72
1
 11
3.1000000000000001
 21
1.0000000000000011
 31
0.0
100
AcDbText
 73
2
  0
TEXT
  5
86
100
AcDbEntity
100
AcDbText
  8
0
 62
256
370
-1
  6
BYLAYER
 10
1.4138607321738494
 20
0.2144903654444607
 30
0.0
 40
0.1
  1
\U+25a1\U+25a0\U+25a1\U+25a0 \U+25a0\U+25a1\U+25a1\U+25a0
 50
0.0
 41
1.0
  7
textstyle2
 71
0
 72
0
 11
1.7763926271138966
 21
0.2963940198890452
 31
0.0
100
AcDbText
 73
2
  0
TEXT
  5
87
100
AcDbEntity
100
AcDbText
  8
0
 62
256
370
-1
  6
BYLAYER
 10
1.5626809999999995
 20
0.3553999999999988
 30
0.0
 40
0.1
  1
X
 50
0.0
 41
1.0
  7
textstyle3
 71
0
 72
0
 11
1.5626809999999998
 21
0.4264000000000002
 31
0.0
100
AcDbText
 73
2
  0
TEXT
  5
88
100
AcDbEntity
100
AcDbText
  8
0
 62
256
370
-1
  6
BYLAYER
 10
1.413860732173849
 20
0.3564903654444594
 30
0.0
 40
0.1
  1
\U+25a1\U+25a0\U+25a1\U+25a0 \U+25a0\U+25a1\U+25a1\U+25a1
 50
0.0
 41
1.0
  7
textstyle4
 71
0
 72
0
 11
1.7763926271138959
 21
0.4383940198890445
 31
0.0
100
AcDbText
 73
2
  0
TEXT
  5
89
100
AcDbEntity
100
AcDbText
  8
0
 62
256
370
-1
  6
BYLAYER
 10
1.5626809999999998
 20
0.4973999999999996
 30
0.0
 40
0.1
  1
W
 50
0.0
 41
1.0
  7
textstyle5
 71
0
 72
0
 11
1.5626809999999998
 21
0.5683999999999999
 31
0.0
100
AcDbText
 73
2
  0
TEXT
  5
8A
100
AcDbEntity
100
AcDbText
  8
0
 62
256
370
-1
  6
BYLAYER
 10
1.4138607321738492
 20
0.4984903654444588
 30
0.0
 40
0.1
  1
\U+25a1\U+25a0\U+25a1\U+25a0 \U+25a1\U+25a0\U+25a0\U+25a0
 50
0.0
 41
1.0
  7
textstyle6
 71
0
 72
0
 11
1.7763926271138959
 21
0.580394019889044
 31
0.0
100
AcDbText
 73
2
  0
TEXT
  5
8B
100
AcDbEntity
100
AcDbText
  8
0
 62
256
370
-1
  6
BYLAYER
 10
1.562681
 20
0.6394000000000001
 30
0.0
 40
0.1
  1
V
 50
0.0
 41
1.0
  7
textstyle7
 71
0
 72
0
 11
1.562681
 21
0.7104
 31
0.0
100
AcDbText
 73
2
  0
TEXT
  5
8C
100
AcDbEntity
100
AcDbText
  8
0
 62
256
370
-1
  6
BYLAYER
 10
1.4138607321738494
 20
0.6404903654444589
 30
0.0
 40
0.1
  1
\U+25a1\U+25a0\U+25a1\U+25a0 \U+25a1\U+25a0\U+25a0\U+25a1
 50
0.0
 41
1.0
  7
textstyle8
 71
0
 72
0
 11
1.7763926271138961
 21
0.7223940198890447
 31
0.0
100
AcDbText
 73
2
  0
TEXT
  5
8D
100
AcDbEntity
100
AcDbText
  8
0
 62
256
370
-1
  6
BYLAYER
 10
1.5626810000000002
 20
0.7814000000000004
 30
0.0
 40
0.1
  1
U
 50
0.0
 41
1.0
  7
textstyle9
 71
0
 72
0
 11
1.5626810000000002
 21
0.8524
 31
0.0
100
AcDbText
 73
2
  0
TEXT
  5
8E
100
AcDbEntity
100
AcDbText
  8
0
 62
256
370
-1
  6
BYLAYER
 10
1.4138607321738497
 20
0.7824903654444582
 30
0.0
 40
0.1
  1
\U+25a1\U+25a0\U+25a1\U+25a0 \U+25a1\U+25a0\U+25a1\U+25a0
 50
0.0
 41
1.0
  7
textstyle10
 71
0
 72
0
 11
1.7763926271138963
 21
0.8643940198890457
 31
0.0
100
AcDbText
 73
2
  0
TEXT
  5
8F
100
AcDbEntity
100
AcDbText
  8
0
 62
256
370
-1
  6
BYLAYER
 10
1.5626810000000002
 20
0.9234000000000003
 30
0.0
 40
0.1
  1
T
 50
0.0
 41
1.0
  7
textstyle11
 71
0
 72
0
 11
1.5626810000000002
 21
0.9943999999999997
 31
0.0
100
AcDbText
 73
2
  0
TEXT
  5
90
100
AcDbEntity
100
AcDbText
  8
0
 62
256
370
-1
  6
BYLAYER
 10
1.4138607321738497
 20
0.924490365444459
 30
0.0
 40
0.1
  1
\U+25a1\U+25a0\U+25a1\U+25a0 \U+25a1\U+25a0\U+25a1\U+25a1
 50
0.0
 41
1.0
  7
textstyle12
 71
0
 72
0
 11
1.7763926271138963
 21
1.0063940198890449
 31
0.0
100
AcDbText
 73
2
  0
TEXT
  5
91
100
AcDbEntity
100
AcDbText
  8
0
 62
256
370
-1
  6
BYLAYER
 10
1.5626810000000002
 20
1.0653999999999999
 30
0.0
 40
0.1
  1
S
 50
0.0
 41
1.0
  7
textstyle13
 71
0
 72
0
 11
1.5626810000000002
 21
1.1364000000000001
 31
0.0
100
AcDbText
 73
2
  0
TEXT
  5
92
100
AcDbEntity
100
AcDbText
  8
0
 62
256
370
-1
  6
BYLAYER
 10
1.4138607321738497
 20
1.0664903654444582
 30
0.0
 40
0.1
  1
\U+25a1\U+25a0\U+25a1\U+25a0 \U+25a1\U+25a1\U+25a0\U+25a0
 50
0.0
 41
1.0
  7
textstyle14
 71
0
 72
0
 11
1.7763926271138963
 21
1.1483940198890443
 31
0.0
100
AcDbText
 73
2
  0
TEXT
  5
93
100
AcDbEntity
100
AcDbText
  8
0
 62
256
370
-1
  6
BYLAYER
 10
1.5626810000000002
 20
1.2073999999999994
 30
0.0
 40
0.1
  1
R
 50
0.0
 41
1.0
  7
textstyle15
 71
0
 72
0
 11
1.5626810000000002
 21
1.2783999999999998
 31
0.0
100
AcDbText
 73
2
  0
TEXT
  5
94
100
AcDbEntity
100
AcDbText
  8
0
 62
256
370
-1
  6
BYLAYER
 10
1.4138607321738497
 20
1.2084903654444576
 30
0.0
 40
0.1
  1
\U+25a1\U+25a0\U+25a1\U+25a0 \U+25a1\U+25a1\U+25a0\U+25a1
 50
0.0
 41
1.0
  7
textstyle16
 71
0
 72
0
 11
1.7763926271138966
 21
1.2903940198890445
 31
0.0
100
AcDbText
 73
2
  0
TEXT
  5
95
100
AcDbEntity
100
AcDbText
  8
0
 62
256
370
-1
  6
BYLAYER
 10
1.5626810000000002
 20
1.3493999999999995
 30
0.0
 40
0.1
  1
Q
 50
0.0
 41
1.0
  7
textstyle17
 71
0
 72
0
 11
1.5626810000000002
 21
1.4203999999999997
 31
0.0
100
AcDbText
 73
2
  0
TEXT
  5
96
100
AcDbEntity
100
AcDbText
  8
0
 62
256
370
-1
  6
BYLAYER
 10
1.4138607321738497
 20
1.3504903654444578
 30
0.0
 40
0.1
  1
\U+25a1\U+25a0\U+25a1\U+25a0 \U+25a1\U+25a1\U+25a1\U+25a0
 50
0.0
 41
1.0
  7
textstyle18
 71
0
 72
0
 11
1.7763926271138963
 21
1.4323940198890452
 31
0.0
100
AcDbText
 73
2
  0
TEXT
  5
97
100
AcDbEntity
100
AcDbText
  8
0
 62
256
370
-1
  6
BYLAYER
 10
1.5626810000000002
 20
1.4913999999999987
 30
0.0
 40
0.1
  1
P
 50
0.0
 41
1.0
  7
textstyle19
 71
0
 72
0
 11
1.5626810000000002
 21
1.5623999999999987
 31
0.0
100
AcDbText
 73
2
  0
TEXT
  5
98
100
AcDbEntity
100
AcDbText
  8
0
 62
256
370
-1
  6
BYLAYER
 10
1.4138607321738497
 20
1.4924903654444575
 30
0.0
 40
0.1
  1
\U+25a1\U+25a0\U+25a1\U+25a0 \U+25a1\U+25a1\U+25a1\U+25a1
 50
0.0
 41
1.0
  7
textstyle20
 71
0
 72
0
 11
1.7763926271138963
 21
1.5743940198890445
 31
0.0
100
AcDbText
 73
2
  0
TEXT
  5
99
100
AcDbEntity
100
AcDbText
  8
0
 62
256
370
-1
  6
BYLAYER
 10
1.5626810000000002
 20
1.6333999999999989
 30
0.0
 40
0.1
  1
O
 50
0.0
 41
1.0
  7
textstyle21
 71
0
 72
0
 11
1.5626810000000002
 21
1.7043999999999992
 31
0.0
100
AcDbText
 73
2
  0
TEXT
  5
9A
100
AcDbEntity
100
AcDbText
  8
0
 62
256
370
-1
  6
BYLAYER
 10
1.4138607321738497
 20
1.6344903654444574
 30
0.0
 40
0.1
  1
\U+25a1\U+25a0\U+25a1\U+25a1 \U+25a0\U+25a0\U+25a0\U+25a0
 50
0.0
 41
1.0
  7
textstyle22
 71
0
 72
0
 11
1.7763926271138966
 21
1.7163940198890439
 31
0.0
100
AcDbText
 73
2
  0
TEXT
  5
9B
100
AcDbEntity
100
AcDbText
  8
0
 62
256
370
-1
  6
BYLAYER
 10
1.562681
 20
1.775399999999999
 30
0.0
 40
0.1
  1
N
 50
0.0
 41
1.0
  7
textstyle23
 71
0
 72
0
 11
1.5626810000000002
 21
1.8463999999999985
 31
0.0
100
AcDbText
 73
2
  0
TEXT
  5
9C
100
AcDbEntity
100
AcDbText
  8
0
 62
256
370
-1
  6
BYLAYER
 10
1.4138607321738497
 20
1.7764903654444575
 30
0.0
 40
0.1
  1
\U+25a1\U+25a0\U+25a1\U+25a1 \U+25a0\U+25a0\U+25a0\U+25a1
 50
0.0
 41
1.0
  7
textstyle24
 71
0
 72
0
 11
1.7763926271138963
 21
1.8583940198890445
 31
0.0
100
AcDbText
 73
2
  0
TEXT
  5
9D
100
AcDbEntity
100
AcDbText
  8
0
 62
256
370
-1
  6
BYLAYER
 10
0.162681
 20
0.0714
 30
0.0
 40
0.1
  1
M
 50
0.0
 41
1.0
  7
textstyle25
 71
0
 72
0
 11
0.162681
 21
0.1424
 31
0.0
100
AcDbText
 73
2
  0
TEXT
  5
9E
100
AcDbEntity
100
AcDbText
  8
0
 62
256
370
-1
  6
BYLAYER
 10
0.0138607321738496
 20
0.0724903654444586
 30
0.0
 40
0.1
  1
\U+25a1\U+25a0\U+25a1\U+25a1 \U+25a0\U+25a0\U+25a1\U+25a0
 50
0.0
 41
1.0
  7
textstyle26
 71
0
 72
0
 11
0.3763926271138959
 21
0.1543940198890453
 31
0.0
100
AcDbText
 73
2
  0
TEXT
  5
9F
100
AcDbEntity
100
AcDbText
  8
0
 62
256
370
-1
  6
BYLAYER
 10
0.162681
 20
0.2134000000000002
 30
0.0
 40
0.1
  1
L
 50
0.0
 41
1.0
  7
textstyle27
 71
0
 72
0
 11
0.1626809999999995
 21
0.2844000000000007
 31
0.0
100
AcDbText
 73
2
  0
TEXT
  5
A0
100
AcDbEntity
100
AcDbText
  8
0
 62
256
370
-1
  6
BYLAYER
 10
-0.1488206655400679
 20
-0.211909634555541
 30
0.0
 40
0.1
  1
\U+25a1\U+25a0\U+25a1\U+25a1 \U+25a0\U+25a0\U+25a1\U+25a1
 50
0.0
 41
1.0
  7
textstyle28
 71
0
 72
0
 11
0.3763926271138961
 21
0.2963940198890449
 31
0.0
100
AcDbText
 73
2
  0
TEXT
  5
A1
100
AcDbEntity
100
AcDbText
  8
0
 62
256
370
-1
  6
BYLAYER
 10
-0.0000003977139173
 20
-0.0709999999999996
 30
0.0
 40
0.1
  1
K
 50
0.0
 41
1.0
  7
textstyle29
 71
0
 72
0
 11
0.1626809999999998
 21
0.4264000000000003
 31
0.0
100
AcDbText
 73
2
  0
TEXT
  5
A2
100
AcDbEntity
100
AcDbText
  8
0
 62
256
370
-1
  6
BYLAYER
 10
-0.1488206655400676
 20
-0.069909634555541
 30
0.0
 40
0.1
  1
\U+25a1\U+25a0\U+25a1\U+25a1 \U+25a0\U+25a1\U+25a0\U+25a0
 50
0.0
 41
1.0
  7
textstyle30
 71
0
 72
0
 11
0.3763926271138959
 21
0.438394019889045
 31
0.0
100
AcDbText
 73
2
  0
TEXT
  5
A3
100
AcDbEntity
100
AcDbText
  8
0
 62
256
370
-1
  6
BYLAYER
 10
0.1626809999999998
 20
0.4974000000000004
 30
0.0
 40
0.1
  1
J
 50
0.0
 41
1.0
  7
textstyle31
 71
0
 72
0
 11
0.1626809999999997
 21
0.5684000000000001
 31
0.0
100
AcDbText
 73
2
  0
TEXT
  5
A4
100
AcDbEntity
100
AcDbText
  8
0
 62
256
370
-1
  6
BYLAYER
 10
-0.1488206655400675
 20
0.0720903654444591
 30
0.0
 40
0.1
  1
\U+25a1\U+25a0\U+25a1\U+25a1 \U+25a0\U+25a1\U+25a0\U+25a1
 50
0.0
 41
1.0
  7
textstyle32
 71
0
 72
0
 11
0.3763926271138959
 21
0.5803940198890456
 31
0.0
100
AcDbText
 73
2
  0
TEXT
  5
A5
100
AcDbEntity
100
AcDbText
  8
0
 62
256
370
-1
  6
BYLAYER
 10
-0.0000003977139168
 20
0.2129999999999999
 30
0.0
 40
0.1
  1
I
 50
0.0
 41
1.0
  7
textstyle33
 71
0
 72
0
 11
0.162681
 21
0.7103999999999999
 31
0.0
100
AcDbText
 73
2
  0
TEXT
  5
A6
100
AcDbEntity
100
AcDbText
  8
0
 62
256
370
-1
  6
BYLAYER
 10
-0.1488206655400678
 20
0.2140903654444592
 30
0.0
 40
0.1
  1
\U+25a1\U+25a0\U+25a1\U+25a1 \U+25a0\U+25a1\U+25a1\U+25a0
 50
0.0
 41
1.0
  7
textstyle34
 71
0
 72
0
 11
0.3763926271138961
 21
0.7223940198890454
 31
0.0
100
AcDbText
 73
2
  0
TEXT
  5
A7
100
AcDbEntity
100
AcDbText
  8
0
 62
256
370
-1
  6
BYLAYER
 10
0.162681
 20
0.7814000000000014
 30
0.0
 40
0.1
  1
H
 50
0.0
 41
1.0
  7
textstyle35
 71
0
 72
0
 11
0.162681
 21
0.8524000000000016
 31
0.0
100
AcDbText
 73
2
  0
TEXT
  5
A8
100
AcDbEntity
100
AcDbText
  8
0
 62
256
370
-1
  6
BYLAYER
 10
-0.1488206655400675
 20
0.3560903654444592
 30
0.0
 40
0.1
  1
\U+25a1\U+25a0\U+25a1\U+25a1 \U+25a0\U+25a1\U+25a1\U+25a1
 50
0.0
 41
1.0
  7
textstyle36
 71
0
 72
0
 11
0.3763926271138961
 21
0.8643940198890461
 31
0.0
100
AcDbText
 73
2
  0
TEXT
  5
A9
100
AcDbEntity
100
AcDbText
  8
0
 62
256
370
-1
  6
BYLAYER
 10
-0.0000003977139168
 20
0.4969999999999999
 30
0.0
 40
0.1
  1
G
 50
0.0
 41
1.0
  7
textstyle37
 71
0
 72
0
 11
0.1626810000000002
 21
0.9944000000000531
 31
0.0
100
AcDbText
 73
2
  0
TEXT
  5
AA
100
AcDbEntity
100
AcDbText
  8
0
 62
256
370
-1
  6
BYLAYER
 10
-0.1488206655400673
 20
0.4980903654444582
 30
0.0
 40
0.1
  1
\U+25a1\U+25a0\U+25a1\U+25a1 \U+25a1\U+25a0\U+25a0\U+25a0
 50
0.0
 41
1.0
  7
textstyle38
 71
0
 72
0
 11
0.3763926271138961
 21
1.0063940198890333
 31
0.0
100
AcDbText
 73
2
  0
TEXT
  5
AB
100
AcDbEntity
100
AcDbText
  8
0
 62
256
370
-1
  6
BYLAYER
 10
0.162681
 20
1.0654000000000017
 30
0.0
 40
0.1
  1
F
 50
0.0
 41
1.0
  7
textstyle39
 71
0
 72
0
 11
0.1626810000000003
 21
1.1364000000000001
 31
0.0
100
AcDbText
 73
2
  0
TEXT
  5
AC
100
AcDbEntity
100
AcDbText
  8
0
 62
256
370
-1
  6
BYLAYER
 10
-0.1488206655400675
 20
0.6400903654444587
 30
0.0
 40
0.1
  1
\U+25a1\U+25a0\U+25a1\U+25a1 \U+25a1\U+25a0\U+25a0\U+25a1
 50
0.0
 41
1.0
  7
textstyle40
 71
0
 72
0
 11
0.3763926271138962
 21
1.1483940198890439
 31
0.0
100
AcDbText
 73
2
  0
TEXT
  5
AD
100
AcDbEntity
100
AcDbText
  8
0
 62
256
370
-1
  6
BYLAYER
 10
-0.0000003977139168
 20
0.781000000000001
 30
0.0
 40
0.1
  1
E
 50
0.0
 41
1.0
  7
textstyle41
 71
0
 72
0
 11
0.1626810000000003
 21
1.2783999999999998
 31
0.0
100
AcDbText
 73
2
  0
TEXT
  5
AE
100
AcDbEntity
100
AcDbText
  8
0
 62
256
370
-1
  6
BYLAYER
 10
-0.1488206655400674
 20
0.7820903654444573
 30
0.0
 40
0.1
  1
\U+25a1\U+25a0\U+25a1\U+25a1 \U+25a1\U+25a0\U+25a1\U+25a0
 50
0.0
 41
1.0
  7
textstyle42
 71
0
 72
0
 11
0.376392627113896
 21
1.2903940198890451
 31
0.0
100
AcDbText
 73
2
  0
TEXT
  5
AF
100
AcDbEntity
100
AcDbText
  8
0
 62
256
370
-1
  6
BYLAYER
 10
0.1626810000000003
 20
1.3493999999999999
 30
0.0
 40
0.1
  1
D
 50
0.0
 41
1.0
  7
textstyle43
 71
0
 72
0
 11
0.1626810000000001
 21
1.4203999999999997
 31
0.0
100
AcDbText
 73
2
  0
TEXT
  5
B0
100
AcDbEntity
100
AcDbText
  8
0
 62
256
370
-1
  6
BYLAYER
 10
-0.1488206655400673
 20
0.9240903654444566
 30
0.0
 40
0.1
  1
\U+25a1\U+25a0\U+25a1\U+25a1 \U+25a1\U+25a0\U+25a1\U+25a1
 50
0.0
 41
1.0
  7
textstyle44
 71
0
 72
0
 11
0.3763926271138963
 21
1.4323940198890444
 31
0.0
100
AcDbText
 73
2
  0
TEXT
  5
B1
100
AcDbEntity
100
AcDbText
  8
0
 62
256
370
-1
  6
BYLAYER
 10
-0.0000003977139169
 20
1.0649999999999997
 30
0.0
 40
0.1
  1
C
 50
0.0
 41
1.0
  7
textstyle45
 71
0
 72
0
 11
0.1626810000000001
 21
1.5623999999999991
 31
0.0
100
AcDbText
 73
2
  0
TEXT
  5
B2
100
AcDbEntity
100
AcDbText
  8
0
 62
256
370
-1
  6
BYLAYER
 10
-0.148820665540067
 20
1.06609036544446
 30
0.0
 40
0.1
  1
\U+25a1\U+25a0\U+25a1\U+25a1 \U+25a1\U+25a1\U+25a0\U+25a0
 50
0.0
 41
1.0
  7
textstyle46
 71
0
 72
0
 11
0.3763926271138961
 21
1.574394019889044
 31
0.0
100
AcDbText
 73
2
  0
TEXT
  5
B3
100
AcDbEntity
100
AcDbText
  8
0
 62
256
370
-1
  6
BYLAYER
 10
0.1626810000000001
 20
1.6333999999999989
 30
0.0
 40
0.1
  1
B
 50
0.0
 41
1.0
  7
textstyle47
 71
0
 72
0
 11
0.1626810000000001
 21
1.7043999999999986
 31
0.0
100
AcDbText
 73
2
  0
TEXT
  5
B4
100
AcDbEntity
100
AcDbText
  8
0
 62
256
370
-1
  6
BYLAYER
 10
-0.148820665540067
 20
1.2080903654444564
 30
0.0
 40
0.1
  1
\U+25a1\U+25a0\U+25a1\U+25a1 \U+25a1\U+25a1\U+25a0\U+25a1
 50
0.0
 41
1.0
  7
textstyle48
 71
0
 72
0
 11
0.3763926271138958
 21
1.7163940198890442
 31
0.0
100
AcDbText
 73
2
  0
TEXT
  5
B5
100
AcDbEntity
100
AcDbText
  8
0
 62
256
370
-1
  6
BYLAYER
 10
-0.0000003977139168
 20
1.3489999999999991
 30
0.0
 40
0.1
  1
A
 50
0.0
 41
1.0
  7
textstyle49
 71
0
 72
0
 11
0.1626810000000001
 21
1.8463999999999985
 31
0.0
100
AcDbText
 73
2
  0
TEXT
  5
B6
100
AcDbEntity
100
AcDbText
  8
0
 62
256
370
-1
  6
BYLAYER
 10
-0.1488206655400672
 20
1.3500903654444569
 30
0.0
 40
0.1
  1
\U+25a1\U+25a0\U+25a1\U+25a1 \U+25a1\U+25a1\U+25a1\U+25a0
 50
0.0
 41
1.0
  7
textstyle50
 71
0
 72
0
 11
0.376392627113896
 21
1.8583940198890434
 31
0.0
100
AcDbText
 73
2
  0
TEXT
  5
B7
100
AcDbEntity
100
AcDbText
  8
0
 62
256
370
-1
  6
BYLAYER
 10
1.562681
 20
0.0714000000000019
 30
0.0
 40
0.1
  1
Z
 50
0.0
 41
1.0
  7
textstyle51
 71
0
 72
0
 11
1.5626810000000004
 21
0.1424
 31
0.0
100
AcDbText
 73
2
  0
TEXT
  5
B8
100
AcDbEntity
100
AcDbText
  8
0
 62
256
370
-1
  6
BYLAYER
 10
1.4138607321738494
 20
0.072490365444455
 30
0.0
 40
0.1
  1
\U+25a1\U+25a0\U+25a1\U+25a0 \U+25a0\U+25a1\U+25a0\U+25a1
 50
0.0
 41
1.0
  7
textstyle52
 71
0
 72
0
 11
1.7763926271138963
 21
0.1543940198890654
 31
0.0
100
AcDbText
 73
2
  0
TEXT
  5
B9
100
AcDbEntity
100
AcDbText
  8
0
 62
256
370
-1
  6
BYLAYER
 10
1.5626810000000002
 20
0.2133999999999983
 30
0.0
 40
0.1
  1
Y
 50
0.0
 41
1.0
  7
textstyle53
 71
0
 72
0
 11
1.5626810000000004
 21
0.2844000000000011
 31
0.0
100
AcDbText
 73
2
  0
ENDBLK
  5
BA
100
AcDbEntity
  8
0
100
AcDbBlockEnd
  0
BLOCK
  5
BB
100
AcDbEntity
  8
0
100
AcDbBlockBegin
  2
safearea
 70
0
 10
0.0
 20
0.0
 30
0.0
  3
safearea
  1

  0
LINE
  5
BC
100
AcDbEntity
100
AcDbLine
  8
Dimensions
 62
5
420
255
370
-1
  6
BYLAYER
 10
0.0
 20
0.0
 30
0.0
 11
3.3460000000000001
 21
0.0
 31
0.0
  0
LINE
  5
BD
100
AcDbEntity
100
AcDbLine
  8
Dimensions
 62
5
420
255
370
-1
  6
BYLAYER
 10
3.3460000000000001
 20
0.0
 30
0.0
 11
3.3460000000000001
 21
1.8460000000000001
 31
0.0
  0
LINE
  5
BE
100
AcDbEntity
100
AcDbLine
  8
Dimensions
 62
5
420
255
370
-1
  6
BYLAYER
 10
3.3460000000000001
 20
1.8460000000000001
 30
0.0
 11
0.0
 21
1.8460000000000001
 31
0.0
  0
LINE
  5
BF
100
AcDbEntity
100
AcDbLine
  8
Dimensions
 62
5
420
255
370
-1
  6
BYLAYER
 10
0.0
 20
1.8460000000000001
 30
0.0
 11
0.0
 21
0.0
 31
0.0
  0
ENDBLK
  5
C0
100
AcDbEntity
  8
0
100
AcDbBlockEnd
  0
ENDSEC
  0
SECTION
  2
ENTITIES
  0
INSERT
  5
C1
100
AcDbEntity
100
AcDbBlockReference
  8
0
 62
256
370
-1
  6
BYLAYER
  2
card
 10
0.06
 20
0.06
 30
0.0
  0
LINE
  5
C2
100
AcDbEntity
100
AcDbLine
  8
Outer dimensions
 62
256
370
-1
  6
BYLAYER
 10
0.0
 20
0.0
 30
0.0
 11
3.6200000000000001
 21
0.0
 31
0.0
  0
LINE
  5
C3
100
AcDbEntity
100
AcDbLine
  8
Outer dimensions
 62
256
370
-1
  6
BYLAYER
 10
3.6200000000000001
 20
0.0
 30
0.0
 11
3.6200000000000001
 21
2.1200000000000001
 31
0.0
  0
LINE
  5
C4
100
AcDbEntity
100
AcDbLine
  8
Outer dimensions
 62
256
370
-1
  6
BYLAYER
 10
3.6200000000000001
 20
2.1200000000000001
 30
0.0
 11
0.0
 21
2.1200000000000001
 31
0.0
  0
LINE
  5
C5
100
AcDbEntity
100
AcDbLine
  8
Outer dimensions
 62
256
370
-1
  6
BYLAYER
 10
0.0
 20
2.1200000000000001
 30
0.0
 11
0.0
 21
0.0
 31
0.0
  0
INSERT
  5
C6
100
AcDbEntity
100
AcDbBlockReference
  8
Dimensions
 62
1
420
16711680
370
-1
  6
BYLAYER
  2
safearea
 10
0.137
 20
0.137
 30
0.0
  0
ENDSEC
  0
SECTION
  2
OBJECTS
  0
DICTIONARY
  5
C
100
AcDbDictionary
280
0
281
1
  3
ACAD_GROUP
350
D
  3
ACAD_LAYOUT
350
1A
  3
ACAD_MLINESTYLE
350
17
  3
ACAD_PLOTSETTINGS
350
19
  3
ACAD_PLOTSTYLENAME
350
E
  3
AcDbVariableDictionary
350
C7
  3
QCAD_OBJECTS
350
C8
  0
DICTIONARY
  5
D
100
AcDbDictionary
280
0
281
1
  0
ACDBDICTIONARYWDFLT
  5
E
100
AcDbDictionary
281
1
  3
Normal
350
F
100
AcDbDictionaryWithDefault
340
F
  0
ACDBPLACEHOLDER
  5
F
  0
DICTIONARY
  5
17
100
AcDbDictionary
280
0
281
1
  3
Standard
350
18
  0
MLINESTYLE
  5
18
100
AcDbMlineStyle
  2
STANDARD
 70
0
  3

 62
256
 51
90.0
 52
90.0
 71
2
 49
0.5
 62
256
  6
BYLAYER
 49
-0.5
 62
256
  6
BYLAYER
  0
DICTIONARY
  5
19
100
AcDbDictionary
280
0
281
1
  0
DICTIONARY
  5
1A
100
AcDbDictionary
281
1
  3
Layout1
350
1E
  3
Layout2
350
26
  3
Model
350
22
  0
LAYOUT
  5
1E
100
AcDbPlotSettings
  1

  2
none_device
  4

  6

 40
0.0
 41
0.0
 42
0.0
 43
0.0
 44
0.0
 45
0.0
 46
0.0
 47
0.0
 48
0.0
 49
0.0
140
0.0
141
0.0
142
1.0
143
1.0
 70
688
 72
0
 73
0
 74
5
  7

 75
16
147
1.0
148
0.0
149
0.0
100
AcDbLayout
  1
Layout1
 70
1
 71
1
 10
0.0
 20
0.0
 11
420.0
 21
297.0
 12
0.0
 22
0.0
 32
0.0
 14
100000000000000000000.0
 24
100000000000000000000.0
 34
100000000000000000000.0
 15
-100000000000000000000.0
 25
-100000000000000000000.0
 35
-100000000000000000000.0
146
0.0
 13
0.0
 23
0.0
 33
0.0
 16
1.0
 26
0.0
 36
0.0
 17
0.0
 27
1.0
 37
0.0
 76
0
330
1B
  0
LAYOUT
  5
22
100
AcDbPlotSettings
  1

  2
none_device
  4

  6

 40
0.0
 41
0.0
 42
0.0
 43
0.0
 44
0.0
 45
0.0
 46
0.0
 47
0.0
 48
0.0
 49
0.0
140
0.0
141
0.0
142
1.0
143
1.0
 70
1712
 72
0
 73
0
 74
0
  7

 75
0
147
1.0
148
0.0
149
0.0
100
AcDbLayout
  1
Model
 70
1
 71
0
 10
0.0
 20
0.0
 11
12.0
 21
9.0
 12
0.0
 22
0.0
 32
0.0
 14
0.0
 24
0.0
 34
0.0
 15
0.0
 25
0.0
 35
0.0
146
0.0
 13
0.0
 23
0.0
 33
0.0
 16
1.0
 26
0.0
 36
0.0
 17
0.0
 27
1.0
 37
0.0
 76
0
330
1F
  0
LAYOUT
  5
26
100
AcDbPlotSettings
  1

  2
none_device
  4

  6

 40
0.0
 41
0.0
 42
0.0
 43
0.0
 44
0.0
 45
0.0
 46
0.0
 47
0.0
 48
0.0
 49
0.0
140
0.0
141
0.0
142
1.0
143
1.0
 70
688
 72
0
 73
0
 74
5
  7

 75
16
147
1.0
148
0.0
149
0.0
100
AcDbLayout
  1
Layout2
 70
1
 71
2
 10
0.0
 20
0.0
 11
12.0
 21
9.0
 12
0.0
 22
0.0
 32
0.0
 14
0.0
 24
0.0
 34
0.0
 15
0.0
 25
0.0
 35
0.0
146
0.0
 13
0.0
 23
0.0
 33
0.0
 16
1.0
 26
0.0
 36
0.0
 17
0.0
 27
1.0
 37
0.0
 76
0
330
23
  0
DICTIONARY
  5
C7
100
AcDbDictionary
281
1
  3
DIMASSOC
350
CA
  3
HIDETEXT
350
C9
  0
DICTIONARYVAR
  5
C9
100
DictionaryVariables
280
0
  1
2
  0
DICTIONARYVAR
  5
CA
100
DictionaryVariables
280
0
  1
1
  0
DICTIONARY
  5
C8
100
AcDbDictionary
281
1
  3
ColorSettings/ColorMode
350
CB
  3
Grid/DisplayGrid00
350
CC
  3
Grid/DisplayGrid01
350
CD
  3
Grid/DisplayGrid02
350
CE
  3
Grid/DisplayGrid03
350
CF
  3
Grid/GridSpacingX00
350
D0
  3
Grid/GridSpacingX01
350
D1
  3
Grid/GridSpacingX02
350
D2
  3
Grid/GridSpacingX03
350
D3
  3
Grid/GridSpacingY00
350
D4
  3
Grid/GridSpacingY01
350
D5
  3
Grid/GridSpacingY02
350
D6
  3
Grid/GridSpacingY03
350
D7
  3
Grid/IsometricGrid00
350
D8
  3
Grid/IsometricGrid01
350
D9
  3
Grid/IsometricGrid02
350
DA
  3
Grid/IsometricGrid03
350
DB
  3
Grid/IsometricProjection00
350
DC
  3
Grid/IsometricProjection01
350
DD
  3
Grid/IsometricProjection02
350
DE
  3
Grid/IsometricProjection03
350
DF
  3
Grid/MetaGridSpacingX00
350
E0
  3
Grid/MetaGridSpacingX01
350
E1
  3
Grid/MetaGridSpacingX02
350
E2
  3
Grid/MetaGridSpacingX03
350
E3
  3
Grid/MetaGridSpacingY00
350
E4
  3
Grid/MetaGridSpacingY01
350
E5
  3
Grid/MetaGridSpacingY02
350
E6
  3
Grid/MetaGridSpacingY03
350
E7
  3
MultiPageSettings/Columns
350
E8
  3
MultiPageSettings/GlueMarginsBottom
350
E9
  3
MultiPageSettings/GlueMarginsLeft
350
EA
  3
MultiPageSettings/GlueMarginsRight
350
EB
  3
MultiPageSettings/GlueMarginsTop
350
EC
  3
MultiPageSettings/PrintCropMarks
350
ED
  3
MultiPageSettings/Rows
350
EE
  3
PageSettings/OffsetX
350
EF
  3
PageSettings/OffsetY
350
F0
  3
PageSettings/PageOrientation
350
F1
  3
PageSettings/PaperHeight
350
F2
  3
PageSettings/PaperSizeName
350
F3
  3
PageSettings/PaperWidth
350
F4
  3
PageSettings/Scale
350
F5
  3
PageSettings/ShowPaperBorders
350
F6
  3
UnitSettings/PaperUnit
350
F7
  0
XRECORD
  5
CB
330
C8
100
AcDbXrecord
280
1
1000
BlackWhite
  0
XRECORD
  5
CC
330
C8
100
AcDbXrecord
280
1
290
1
  0
XRECORD
  5
CD
330
C8
100
AcDbXrecord
280
1
290
1
  0
XRECORD
  5
CE
330
C8
100
AcDbXrecord
280
1
290
1
  0
XRECORD
  5
CF
330
C8
100
AcDbXrecord
280
1
290
1
  0
XRECORD
  5
D0
330
C8
100
AcDbXrecord
280
1
1000
auto
  0
XRECORD
  5
D1
330
C8
100
AcDbXrecord
280
1
1000
auto
  0
XRECORD
  5
D2
330
C8
100
AcDbXrecord
280
1
1000
auto
  0
XRECORD
  5
D3
330
C8
100
AcDbXrecord
280
1
1000
auto
  0
XRECORD
  5
D4
330
C8
100
AcDbXrecord
280
1
1000
auto
  0
XRECORD
  5
D5
330
C8
100
AcDbXrecord
280
1
1000
auto
  0
XRECORD
  5
D6
330
C8
100
AcDbXrecord
280
1
1000
auto
  0
XRECORD
  5
D7
330
C8
100
AcDbXrecord
280
1
1000
auto
  0
XRECORD
  5
D8
330
C8
100
AcDbXrecord
280
1
290
0
  0
XRECORD
  5
D9
330
C8
100
AcDbXrecord
280
1
290
0
  0
XRECORD
  5
DA
330
C8
100
AcDbXrecord
280
1
290
0
  0
XRECORD
  5
DB
330
C8
100
AcDbXrecord
280
1
290
0
  0
XRECORD
  5
DC
330
C8
100
AcDbXrecord
280
1
 90
0
  0
XRECORD
  5
DD
330
C8
100
AcDbXrecord
280
1
 90
0
  0
XRECORD
  5
DE
330
C8
100
AcDbXrecord
280
1
 90
0
  0
XRECORD
  5
DF
330
C8
100
AcDbXrecord
280
1
 90
0
  0
XRECORD
  5
E0
330
C8
100
AcDbXrecord
280
1
1000
auto
  0
XRECORD
  5
E1
330
C8
100
AcDbXrecord
280
1
1000
auto
  0
XRECORD
  5
E2
330
C8
100
AcDbXrecord
280
1
1000
auto
  0
XRECORD
  5
E3
330
C8
100
AcDbXrecord
280
1
1000
auto
  0
XRECORD
  5
E4
330
C8
100
AcDbXrecord
280
1
1000
auto
  0
XRECORD
  5
E5
330
C8
100
AcDbXrecord
280
1
1000
auto
  0
XRECORD
  5
E6
330
C8
100
AcDbXrecord
280
1
1000
auto
  0
XRECORD
  5
E7
330
C8
100
AcDbXrecord
280
1
1000
auto
  0
XRECORD
  5
E8
330
C8
100
AcDbXrecord
280
1
 90
1
  0
XRECORD
  5
E9
330
C8
100
AcDbXrecord
280
1
 40
10.0
  0
XRECORD
  5
EA
330
C8
100
AcDbXrecord
280
1
 40
10.0
  0
XRECORD
  5
EB
330
C8
100
AcDbXrecord
280
1
 40
10.0
  0
XRECORD
  5
EC
330
C8
100
AcDbXrecord
280
1
 40
10.0
  0
XRECORD
  5
ED
330
C8
100
AcDbXrecord
280
1
290
0
  0
XRECORD
  5
EE
330
C8
100
AcDbXrecord
280
1
 90
1
  0
XRECORD
  5
EF
330
C8
100
AcDbXrecord
280
1
 40
0.0
  0
XRECORD
  5
F0
330
C8
100
AcDbXrecord
280
1
 40
0.0
  0
XRECORD
  5
F1
330
C8
100
AcDbXrecord
280
1
1000
Portrait
  0
XRECORD
  5
F2
330
C8
100
AcDbXrecord
280
1
1000
54
  0
XRECORD
  5
F3
330
C8
100
AcDbXrecord
280
1
1000
Custom
  0
XRECORD
  5
F4
330
C8
100
AcDbXrecord
280
1
1000
92
  0
XRECORD
  5
F5
330
C8
100
AcDbXrecord
280
1
1000
1:1
  0
XRECORD
  5
F6
330
C8
100
AcDbXrecord
280
1
290
1
  0
XRECORD
  5
F7
330
C8
100
AcDbXrecord
280
1
 90
1
  0
ENDSEC
  0
EOF
